<svg width="64" height="64" viewBox="0 0 64 64" fill="none" xmlns="http://www.w3.org/2000/svg">
<rect width="64" height="64" rx="13.3333" fill="url(#paint0_linear_69_16844)"/>
<path d="M16.2502 23.8502C15.477 23.8502 14.8502 24.477 14.8502 25.2502C14.8502 26.0234 15.477 26.6502 16.2502 26.6502V23.8502ZM23.0002 26.6502C23.7734 26.6502 24.4002 26.0234 24.4002 25.2502C24.4002 24.477 23.7734 23.8502 23.0002 23.8502V26.6502ZM27.4999 23.8502C26.7267 23.8502 26.0999 24.477 26.0999 25.2502C26.0999 26.0234 26.7267 26.6502 27.4999 26.6502V23.8502ZM40.9999 26.6502C41.7731 26.6502 42.3999 26.0234 42.3999 25.2502C42.3999 24.477 41.7731 23.8502 40.9999 23.8502V26.6502ZM32.0002 30.5995C31.227 30.5995 30.6002 31.2263 30.6002 31.9995C30.6002 32.7727 31.227 33.3995 32.0002 33.3995V30.5995ZM41.0002 33.3995C41.7734 33.3995 42.4002 32.7727 42.4002 31.9995C42.4002 31.2263 41.7734 30.5995 41.0002 30.5995V33.3995ZM36.5005 37.3494C35.7273 37.3494 35.1005 37.9762 35.1005 38.7494C35.1005 39.5226 35.7273 40.1494 36.5005 40.1494V37.3494ZM41.0005 40.1494C41.7737 40.1494 42.4005 39.5226 42.4005 38.7494C42.4005 37.9762 41.7737 37.3494 41.0005 37.3494V40.1494ZM16.2502 30.5995C15.477 30.5995 14.8502 31.2263 14.8502 31.9995C14.8502 32.7727 15.477 33.3995 16.2502 33.3995V30.5995ZM23.0002 33.3995C23.7734 33.3995 24.4002 32.7727 24.4002 31.9995C24.4002 31.2263 23.7734 30.5995 23.0002 30.5995V33.3995ZM16.2502 37.3494C15.477 37.3494 14.8502 37.9762 14.8502 38.7494C14.8502 39.5226 15.477 40.1494 16.2502 40.1494V37.3494ZM23.0002 40.1494C23.7734 40.1494 24.4002 39.5226 24.4002 38.7494C24.4002 37.9762 23.7734 37.3494 23.0002 37.3494V40.1494ZM16.2502 26.6502H23.0002V23.8502H16.2502V26.6502ZM27.4999 26.6502H40.9999V23.8502H27.4999V26.6502ZM32.0002 33.3995H41.0002V30.5995H32.0002V33.3995ZM36.5005 40.1494H41.0005V37.3494H36.5005V40.1494ZM16.2502 33.3995H23.0002V30.5995H16.2502V33.3995ZM16.2502 40.1494H23.0002V37.3494H16.2502V40.1494ZM22.1505 43.2501V20.7502H19.3505V43.2501H22.1505ZM22.1505 20.7502C22.1505 19.0381 23.5384 17.6502 25.2505 17.6502V14.8502C21.992 14.8502 19.3505 17.4917 19.3505 20.7502H22.1505ZM25.2505 17.6502H43.2505V14.8502H25.2505V17.6502ZM43.2505 17.6502C44.9626 17.6502 46.3505 19.0381 46.3505 20.7502H49.1505C49.1505 17.4917 46.509 14.8502 43.2505 14.8502V17.6502ZM46.3505 20.7502V43.2501H49.1505V20.7502H46.3505ZM46.3505 43.2501C46.3505 44.9622 44.9626 46.3501 43.2505 46.3501V49.1502C46.509 49.1502 49.1505 46.5086 49.1505 43.2501H46.3505ZM43.2505 46.3501H25.2505V49.1502H43.2505V46.3501ZM25.2505 46.3501C23.5384 46.3501 22.1505 44.9622 22.1505 43.2501H19.3505C19.3505 46.5086 21.992 49.1502 25.2505 49.1502V46.3501Z" fill="white"/>
<defs>
<linearGradient id="paint0_linear_69_16844" x1="32" y1="0" x2="32" y2="64" gradientUnits="userSpaceOnUse">
<stop stop-color="#6788FF"/>
<stop offset="1" stop-color="#6792FF" stop-opacity="0.533854"/>
</linearGradient>
</defs>
</svg>
