<svg width="64" height="64" viewBox="0 0 64 64" fill="none" xmlns="http://www.w3.org/2000/svg">
<rect width="64" height="64" rx="13.3333" fill="url(#paint0_linear_69_16881)"/>
<path fill-rule="evenodd" clip-rule="evenodd" d="M34.128 45.2L30.108 32.93C29.9272 32.1397 30.1655 31.312 30.7387 30.7387C31.312 30.1655 32.1397 29.9272 32.93 30.108L45.2 34.128C45.6401 34.1943 45.9799 34.5492 46.0269 34.9917C46.0739 35.4343 45.8163 35.8527 45.4 36.01L39.632 38.634C39.1797 38.8325 38.8185 39.1937 38.62 39.646L36 45.414C35.8427 45.8303 35.4243 46.0879 34.9818 46.0409C34.5392 45.9939 34.1843 45.6541 34.118 45.214L34.128 45.2Z" stroke="white" stroke-width="2.8" stroke-linecap="round" stroke-linejoin="round"/>
<path d="M21.1038 31.8135C21.877 31.8135 22.5038 31.1867 22.5038 30.4135C22.5038 29.6403 21.877 29.0135 21.1038 29.0135V31.8135ZM17.9998 29.0135C17.2266 29.0135 16.5998 29.6403 16.5998 30.4135C16.5998 31.1867 17.2266 31.8135 17.9998 31.8135V29.0135ZM31.8158 17.9998C31.8158 17.2266 31.189 16.5998 30.4158 16.5998C29.6426 16.5998 29.0158 17.2266 29.0158 17.9998H31.8158ZM29.0158 21.1038C29.0158 21.877 29.6426 22.5038 30.4158 22.5038C31.189 22.5038 31.8158 21.877 31.8158 21.1038H29.0158ZM40.1839 22.6259C40.7307 22.0791 40.7307 21.1927 40.1839 20.646C39.6372 20.0992 38.7508 20.0992 38.204 20.646L40.1839 22.6259ZM36.004 22.846C35.4573 23.3927 35.4573 24.2791 36.004 24.8259C36.5508 25.3726 37.4372 25.3726 37.9839 24.8259L36.004 22.846ZM24.8196 37.9896C25.3663 37.4429 25.3663 36.5565 24.8196 36.0097C24.2729 35.463 23.3864 35.463 22.8397 36.0097L24.8196 37.9896ZM20.6397 38.2097C20.093 38.7565 20.093 39.6429 20.6397 40.1896C21.1864 40.7364 22.0729 40.7364 22.6196 40.1896L20.6397 38.2097ZM22.6196 20.6517C22.0729 20.1049 21.1864 20.1049 20.6397 20.6517C20.093 21.1984 20.093 22.0848 20.6397 22.6316L22.6196 20.6517ZM22.8397 24.8316C23.3864 25.3783 24.2729 25.3783 24.8196 24.8316C25.3663 24.2848 25.3663 23.3984 24.8196 22.8517L22.8397 24.8316ZM21.1038 29.0135H17.9998V31.8135H21.1038V29.0135ZM29.0158 17.9998V21.1038H31.8158V17.9998H29.0158ZM38.204 20.646L36.004 22.846L37.9839 24.8259L40.1839 22.6259L38.204 20.646ZM22.8397 36.0097L20.6397 38.2097L22.6196 40.1896L24.8196 37.9896L22.8397 36.0097ZM20.6397 22.6316L22.8397 24.8316L24.8196 22.8517L22.6196 20.6517L20.6397 22.6316Z" fill="white"/>
<defs>
<linearGradient id="paint0_linear_69_16881" x1="32" y1="0" x2="32" y2="64" gradientUnits="userSpaceOnUse">
<stop stop-color="#57BEF8"/>
<stop offset="1" stop-color="#57BEF8" stop-opacity="0.5"/>
</linearGradient>
</defs>
</svg>
