<svg width="64" height="64" viewBox="0 0 64 64" fill="none" xmlns="http://www.w3.org/2000/svg">
<rect width="64" height="64" rx="13.3333" fill="url(#paint0_linear_69_16856)"/>
<path fill-rule="evenodd" clip-rule="evenodd" d="M36.6666 30.8328C36.6666 33.4102 34.5772 35.4995 31.9999 35.4995C29.4226 35.4995 27.3333 33.4102 27.3333 30.8328C27.3333 28.2555 29.4226 26.1662 31.9999 26.1662C34.5772 26.1662 36.6666 28.2555 36.6666 30.8328Z" stroke="white" stroke-width="2.33333" stroke-linecap="round" stroke-linejoin="round"/>
<path d="M36.6666 16.5989C35.8934 16.5989 35.2666 17.2257 35.2666 17.9989C35.2666 18.7721 35.8934 19.3989 36.6666 19.3989V16.5989ZM27.3332 19.3989C28.1064 19.3989 28.7332 18.7721 28.7332 17.9989C28.7332 17.2257 28.1064 16.5989 27.3332 16.5989V19.3989ZM38.0666 17.9989C38.0666 17.2257 37.4398 16.5989 36.6666 16.5989C35.8934 16.5989 35.2666 17.2257 35.2666 17.9989H38.0666ZM35.2666 20.3323C35.2666 21.1055 35.8934 21.7323 36.6666 21.7323C37.4398 21.7323 38.0666 21.1055 38.0666 20.3323H35.2666ZM35.2666 17.9989C35.2666 18.7721 35.8934 19.3989 36.6666 19.3989C37.4398 19.3989 38.0666 18.7721 38.0666 17.9989H35.2666ZM38.0666 13.3323C38.0666 12.5591 37.4398 11.9323 36.6666 11.9323C35.8934 11.9323 35.2666 12.5591 35.2666 13.3323H38.0666ZM36.6666 19.3989C37.4398 19.3989 38.0666 18.7721 38.0666 17.9989C38.0666 17.2257 37.4398 16.5989 36.6666 16.5989V19.3989ZM27.3332 16.5989C26.56 16.5989 25.9332 17.2257 25.9332 17.9989C25.9332 18.7721 26.56 19.3989 27.3332 19.3989V16.5989ZM28.7332 17.9989C28.7332 17.2257 28.1064 16.5989 27.3332 16.5989C26.56 16.5989 25.9332 17.2257 25.9332 17.9989H28.7332ZM25.9332 20.3323C25.9332 21.1055 26.56 21.7323 27.3332 21.7323C28.1064 21.7323 28.7332 21.1055 28.7332 20.3323H25.9332ZM25.9332 17.9989C25.9332 18.7721 26.56 19.3989 27.3332 19.3989C28.1064 19.3989 28.7332 18.7721 28.7332 17.9989H25.9332ZM28.7332 13.3323C28.7332 12.5591 28.1064 11.9323 27.3332 11.9323C26.56 11.9323 25.9332 12.5591 25.9332 13.3323H28.7332ZM17.1619 46.0438C16.5425 46.5066 16.4156 47.3839 16.8784 48.0033C17.3412 48.6227 18.2185 48.7496 18.8379 48.2868L17.1619 46.0438ZM45.1619 48.2868C45.7813 48.7496 46.6586 48.6227 47.1214 48.0033C47.5842 47.3839 47.4573 46.5066 46.8379 46.0438L45.1619 48.2868ZM36.6666 19.3989H38.9999V16.5989H36.6666V19.3989ZM38.9999 19.3989C43.3814 19.3989 46.9332 22.9508 46.9332 27.3323H49.7332C49.7332 21.4044 44.9278 16.5989 38.9999 16.5989V19.3989ZM46.9332 27.3323V41.3323H49.7332V27.3323H46.9332ZM46.9332 41.3323C46.9332 45.7137 43.3814 49.2656 38.9999 49.2656V52.0656C44.9278 52.0656 49.7332 47.2601 49.7332 41.3323H46.9332ZM38.9999 49.2656H24.9999V52.0656H38.9999V49.2656ZM24.9999 49.2656C20.6184 49.2656 17.0666 45.7137 17.0666 41.3323H14.2666C14.2666 47.2601 19.072 52.0656 24.9999 52.0656V49.2656ZM17.0666 41.3323V27.3323H14.2666V41.3323H17.0666ZM17.0666 27.3323C17.0666 22.9508 20.6184 19.3989 24.9999 19.3989V16.5989C19.072 16.5989 14.2666 21.4044 14.2666 27.3323H17.0666ZM24.9999 19.3989H27.3332V16.5989H24.9999V19.3989ZM35.2666 17.9989V20.3323H38.0666V17.9989H35.2666ZM38.0666 17.9989V13.3323H35.2666V17.9989H38.0666ZM36.6666 16.5989H27.3332V19.3989H36.6666V16.5989ZM25.9332 17.9989V20.3323H28.7332V17.9989H25.9332ZM28.7332 17.9989V13.3323H25.9332V17.9989H28.7332ZM18.8379 48.2868C26.6434 42.4545 37.3564 42.4545 45.1619 48.2868L46.8379 46.0438C38.0384 39.4689 25.9614 39.4689 17.1619 46.0438L18.8379 48.2868Z" fill="white"/>
<defs>
<linearGradient id="paint0_linear_69_16856" x1="32" y1="0" x2="32" y2="64" gradientUnits="userSpaceOnUse">
<stop stop-color="#73E084"/>
<stop offset="1" stop-color="#99F2AD"/>
</linearGradient>
</defs>
</svg>
