<svg width="36" height="36" viewBox="0 0 36 36" fill="none" xmlns="http://www.w3.org/2000/svg">
<path d="M13.5 10C14.0523 10 14.5 9.55228 14.5 9C14.5 8.44772 14.0523 8 13.5 8V10ZM22.5 8C21.9477 8 21.5 8.44772 21.5 9C21.5 9.55228 21.9477 10 22.5 10V8ZM13.5 8C12.9477 8 12.5 8.44772 12.5 9C12.5 9.55228 12.9477 10 13.5 10V8ZM22.5 10C23.0523 10 23.5 9.55228 23.5 9C23.5 8.44772 23.0523 8 22.5 8V10ZM14.5 9C14.5 8.44772 14.0523 8 13.5 8C12.9477 8 12.5 8.44772 12.5 9H14.5ZM12.5 10.5C12.5 11.0523 12.9477 11.5 13.5 11.5C14.0523 11.5 14.5 11.0523 14.5 10.5H12.5ZM12.5 9C12.5 9.55228 12.9477 10 13.5 10C14.0523 10 14.5 9.55228 14.5 9H12.5ZM14.5 6C14.5 5.44772 14.0523 5 13.5 5C12.9477 5 12.5 5.44772 12.5 6H14.5ZM23.5 9C23.5 8.44772 23.0523 8 22.5 8C21.9477 8 21.5 8.44772 21.5 9H23.5ZM21.5 10.5C21.5 11.0523 21.9477 11.5 22.5 11.5C23.0523 11.5 23.5 11.0523 23.5 10.5H21.5ZM21.5 9C21.5 9.55228 21.9477 10 22.5 10C23.0523 10 23.5 9.55228 23.5 9H21.5ZM23.5 6C23.5 5.44772 23.0523 5 22.5 5C21.9477 5 21.5 5.44772 21.5 6H23.5ZM13.5 8C9.63401 8 6.5 11.134 6.5 15H8.5C8.5 12.2386 10.7386 10 13.5 10V8ZM6.5 15V24H8.5V15H6.5ZM6.5 24C6.5 27.866 9.63401 31 13.5 31V29C10.7386 29 8.5 26.7614 8.5 24H6.5ZM13.5 31H22.5V29H13.5V31ZM22.5 31C26.366 31 29.5 27.866 29.5 24H27.5C27.5 26.7614 25.2614 29 22.5 29V31ZM29.5 24V15H27.5V24H29.5ZM29.5 15C29.5 11.134 26.366 8 22.5 8V10C25.2614 10 27.5 12.2386 27.5 15H29.5ZM13.5 10H22.5V8H13.5V10ZM12.5 9V10.5H14.5V9H12.5ZM14.5 9V6H12.5V9H14.5ZM21.5 9V10.5H23.5V9H21.5ZM23.5 9V6H21.5V9H23.5Z" fill="#014AFF"/>
<path d="M12 19.5L15 24L24 16.5" stroke="#014AFF" stroke-width="2" stroke-linecap="round" stroke-linejoin="round"/>
</svg>
