<svg width="36" height="36" viewBox="0 0 36 36" fill="none" xmlns="http://www.w3.org/2000/svg">
<path d="M7.5 12.5C6.94772 12.5 6.5 12.9477 6.5 13.5C6.5 14.0523 6.94772 14.5 7.5 14.5V12.5ZM12 14.5C12.5523 14.5 13 14.0523 13 13.5C13 12.9477 12.5523 12.5 12 12.5V14.5ZM15 12.5C14.4477 12.5 14 12.9477 14 13.5C14 14.0523 14.4477 14.5 15 14.5V12.5ZM24 14.5C24.5523 14.5 25 14.0523 25 13.5C25 12.9477 24.5523 12.5 24 12.5V14.5ZM18 17C17.4477 17 17 17.4477 17 18C17 18.5523 17.4477 19 18 19V17ZM24 19C24.5523 19 25 18.5523 25 18C25 17.4477 24.5523 17 24 17V19ZM21 21.5C20.4477 21.5 20 21.9477 20 22.5C20 23.0523 20.4477 23.5 21 23.5V21.5ZM24 23.5C24.5523 23.5 25 23.0523 25 22.5C25 21.9477 24.5523 21.5 24 21.5V23.5ZM7.5 17C6.94772 17 6.5 17.4477 6.5 18C6.5 18.5523 6.94772 19 7.5 19V17ZM12 19C12.5523 19 13 18.5523 13 18C13 17.4477 12.5523 17 12 17V19ZM7.5 21.5C6.94772 21.5 6.5 21.9477 6.5 22.5C6.5 23.0523 6.94772 23.5 7.5 23.5V21.5ZM12 23.5C12.5523 23.5 13 23.0523 13 22.5C13 21.9477 12.5523 21.5 12 21.5V23.5ZM7.5 14.5H12V12.5H7.5V14.5ZM15 14.5H24V12.5H15V14.5ZM18 19H24V17H18V19ZM21 23.5H24V21.5H21V23.5ZM7.5 19H12V17H7.5V19ZM7.5 23.5H12V21.5H7.5V23.5ZM11.5 25.5V10.5H9.5V25.5H11.5ZM11.5 10.5C11.5 9.39543 12.3954 8.5 13.5 8.5V6.5C11.2909 6.5 9.5 8.29086 9.5 10.5H11.5ZM13.5 8.5H25.5V6.5H13.5V8.5ZM25.5 8.5C26.6046 8.5 27.5 9.39543 27.5 10.5H29.5C29.5 8.29086 27.7091 6.5 25.5 6.5V8.5ZM27.5 10.5V25.5H29.5V10.5H27.5ZM27.5 25.5C27.5 26.6046 26.6046 27.5 25.5 27.5V29.5C27.7091 29.5 29.5 27.7091 29.5 25.5H27.5ZM25.5 27.5H13.5V29.5H25.5V27.5ZM13.5 27.5C12.3954 27.5 11.5 26.6046 11.5 25.5H9.5C9.5 27.7091 11.2909 29.5 13.5 29.5V27.5Z" fill="#595959"/>
</svg>
