<svg width="36" height="36" viewBox="0 0 36 36" fill="none" xmlns="http://www.w3.org/2000/svg">
<path d="M7.5 9.7065C7.5 9.15422 7.05229 8.7065 6.5 8.7065C5.94772 8.7065 5.5 9.15422 5.5 9.7065H7.5ZM6.5 26.0295L7.5 26.0307V26.0295H6.5ZM7.22059 27.7752L7.92856 27.0689L7.92856 27.0689L7.22059 27.7752ZM8.9645 28.5L8.96329 29.5H8.9645V28.5ZM27.0355 28.5L27.0355 29.5L27.0367 29.5L27.0355 28.5ZM28.7794 27.7752L28.0714 27.0689L28.0714 27.0689L28.7794 27.7752ZM29.5 26.0295L28.5 26.0295L28.5 26.0307L29.5 26.0295ZM29.5 12.177L28.5 12.1758V12.177H29.5ZM28.7794 10.4313L28.0714 11.1376L28.0714 11.1376L28.7794 10.4313ZM27.0355 9.7065L27.0367 8.7065H27.0355V9.7065ZM18.804 8.7065C18.2517 8.7065 17.804 9.15422 17.804 9.7065C17.804 10.2588 18.2517 10.7065 18.804 10.7065V8.7065ZM5.5 9.7065C5.5 10.2588 5.94772 10.7065 6.5 10.7065C7.05229 10.7065 7.5 10.2588 7.5 9.7065H5.5ZM6.5 8.4705L7.5 8.4705L7.5 8.46928L6.5 8.4705ZM7.2206 6.72483L7.92856 7.43108L7.92856 7.43108L7.2206 6.72483ZM8.9645 6L8.9645 5L8.96329 5L8.9645 6ZM16.0355 6L16.0367 5H16.0355V6ZM17.7794 6.72483L17.0714 7.43108L17.0714 7.43108L17.7794 6.72483ZM18.5 8.4705L17.5 8.46928V8.4705H18.5ZM17.5 9.7065C17.5 10.2588 17.9477 10.7065 18.5 10.7065C19.0523 10.7065 19.5 10.2588 19.5 9.7065H17.5ZM6.50001 8.7065C5.94772 8.7065 5.50001 9.15422 5.50001 9.7065C5.50001 10.2588 5.94772 10.7065 6.50001 10.7065L6.50001 8.7065ZM18.804 10.7065C19.3563 10.7065 19.804 10.2588 19.804 9.7065C19.804 9.15422 19.3563 8.7065 18.804 8.7065L18.804 10.7065ZM5.5 9.7065V26.0295H7.5V9.7065H5.5ZM5.5 26.0283C5.49888 26.9479 5.86314 27.8303 6.51263 28.4814L7.92856 27.0689C7.65368 26.7934 7.49953 26.4199 7.5 26.0307L5.5 26.0283ZM6.51263 28.4814C7.16212 29.1325 8.04365 29.4989 8.96329 29.5L8.96572 27.5C8.57651 27.4995 8.20344 27.3445 7.92856 27.0689L6.51263 28.4814ZM8.9645 29.5H27.0355V27.5H8.9645V29.5ZM27.0367 29.5C27.9564 29.4989 28.8379 29.1325 29.4874 28.4814L28.0714 27.0689C27.7966 27.3445 27.4235 27.4995 27.0343 27.5L27.0367 29.5ZM29.4874 28.4814C30.1369 27.8303 30.5011 26.9479 30.5 26.0283L28.5 26.0307C28.5005 26.4199 28.3463 26.7934 28.0714 27.0689L29.4874 28.4814ZM30.5 26.0295V12.177H28.5V26.0295H30.5ZM30.5 12.1782C30.5011 11.2586 30.1369 10.3762 29.4874 9.72509L28.0714 11.1376C28.3463 11.4131 28.5005 11.7866 28.5 12.1758L30.5 12.1782ZM29.4874 9.72509C28.8379 9.07402 27.9564 8.70762 27.0367 8.7065L27.0343 10.7065C27.4235 10.707 27.7966 10.862 28.0714 11.1376L29.4874 9.72509ZM27.0355 8.7065H18.804V10.7065H27.0355V8.7065ZM7.5 9.7065V8.4705H5.5V9.7065H7.5ZM7.5 8.46928C7.49953 8.08008 7.65369 7.70663 7.92856 7.43108L6.51263 6.01859C5.86314 6.66966 5.49889 7.55208 5.5 8.47172L7.5 8.46928ZM7.92856 7.43108C8.20344 7.15554 8.57651 7.00047 8.96572 7L8.96329 5C8.04365 5.00112 7.16212 5.36752 6.51263 6.01859L7.92856 7.43108ZM8.9645 7H16.0355V5H8.9645V7ZM16.0343 7C16.4235 7.00047 16.7966 7.15554 17.0714 7.43108L18.4874 6.01859C17.8379 5.36752 16.9564 5.00112 16.0367 5L16.0343 7ZM17.0714 7.43108C17.3463 7.70663 17.5005 8.08008 17.5 8.46928L19.5 8.47172C19.5011 7.55208 19.1369 6.66966 18.4874 6.01859L17.0714 7.43108ZM17.5 8.4705V9.7065H19.5V8.4705H17.5ZM6.50001 10.7065L18.804 10.7065L18.804 8.7065L6.50001 8.7065L6.50001 10.7065Z" fill="#595959"/>
<path d="M12 23H18" stroke="#595959" stroke-width="2" stroke-linecap="round"/>
</svg>
