<svg width="36" height="36" viewBox="0 0 36 36" fill="none" xmlns="http://www.w3.org/2000/svg">
<path fill-rule="evenodd" clip-rule="evenodd" d="M22.5 12.75C22.5 13.1642 22.8358 13.5 23.25 13.5C23.6642 13.5 24 13.1642 24 12.75C24 12.3358 23.6642 12 23.25 12C22.8358 12 22.5 12.3358 22.5 12.75Z" stroke="#014AFF" stroke-width="2" stroke-linecap="round" stroke-linejoin="round"/>
<path d="M27.5 16.5C27.5 17.0523 27.9477 17.5 28.5 17.5C29.0523 17.5 29.5 17.0523 29.5 16.5H27.5ZM7.50001 22.5L8.50001 22.5013V22.5H7.50001ZM7.88865 26.6839C8.21939 27.1262 8.84607 27.2166 9.28837 26.8859C9.73067 26.5551 9.8211 25.9284 9.49036 25.4861L7.88865 26.6839ZM29.5 16.5C29.5 15.9477 29.0523 15.5 28.5 15.5C27.9477 15.5 27.5 15.9477 27.5 16.5H29.5ZM13.5 28.5L13.5 27.5L13.4994 27.5L13.5 28.5ZM9.49183 25.4881C9.16217 25.045 8.53572 24.953 8.09261 25.2827C7.6495 25.6123 7.55753 26.2388 7.88719 26.6819L9.49183 25.4881ZM29.1717 17.2409C29.5808 16.8699 29.6118 16.2375 29.2409 15.8283C28.8699 15.4192 28.2375 15.3882 27.8283 15.7591L29.1717 17.2409ZM21.45 22.8915L20.7783 22.1506L20.7716 22.1568L21.45 22.8915ZM20.3091 23.2844L20.227 24.2811L20.227 24.2811L20.3091 23.2844ZM19.248 22.71L20.0376 22.0963L20.0371 22.0958L19.248 22.71ZM16.2345 18.8385L17.0236 18.2243L17.0221 18.2224L16.2345 18.8385ZM15.0221 18.263L15.0015 17.2632L15.0221 18.263ZM13.8345 18.888L13.0221 18.3049L13.021 18.3064L13.8345 18.888ZM7.876 25.5034C7.55482 25.9527 7.65866 26.5773 8.10795 26.8985C8.55723 27.2197 9.18183 27.1158 9.50301 26.6666L7.876 25.5034ZM29.5 16.5V13.5H27.5V16.5H29.5ZM29.5 13.5C29.5 9.63401 26.366 6.5 22.5 6.5V8.5C25.2614 8.5 27.5 10.7386 27.5 13.5H29.5ZM22.5 6.5H13.5V8.5H22.5V6.5ZM13.5 6.5C9.63401 6.5 6.50001 9.63401 6.50001 13.5H8.50001C8.50001 10.7386 10.7386 8.5 13.5 8.5V6.5ZM6.50001 13.5V22.5H8.50001V13.5H6.50001ZM6.50001 22.4987C6.49799 24.0072 6.98524 25.4757 7.88865 26.6839L9.49036 25.4861C8.84606 24.6245 8.49856 23.5772 8.5 22.5013L6.50001 22.4987ZM27.5 16.5V22.5H29.5V16.5H27.5ZM27.5 22.5C27.5 25.2614 25.2614 27.5 22.5 27.5V29.5C26.366 29.5 29.5 26.366 29.5 22.5H27.5ZM22.5 27.5H13.5V29.5H22.5V27.5ZM13.4994 27.5C11.9205 27.501 10.4343 26.7549 9.49183 25.4881L7.88719 26.6819C9.20726 28.4563 11.2891 29.5014 13.5006 29.5L13.4994 27.5ZM27.8283 15.7591L20.7783 22.1506L22.1217 23.6324L29.1717 17.2409L27.8283 15.7591ZM20.7716 22.1568C20.6687 22.2518 20.5308 22.2993 20.3913 22.2878L20.227 24.2811C20.9245 24.3386 21.6142 24.101 22.1284 23.6262L20.7716 22.1568ZM20.3913 22.2878C20.2518 22.2763 20.1235 22.2069 20.0376 22.0963L18.4584 23.3237C18.8879 23.8763 19.5294 24.2236 20.227 24.2811L20.3913 22.2878ZM20.0371 22.0958L17.0236 18.2243L15.4454 19.4527L18.4589 23.3242L20.0371 22.0958ZM17.0221 18.2224C16.5371 17.6024 15.7885 17.247 15.0015 17.2632L15.0427 19.2628C15.2001 19.2596 15.3499 19.3306 15.4469 19.4546L17.0221 18.2224ZM15.0015 17.2632C14.2145 17.2795 13.4812 17.6654 13.0221 18.3049L14.6469 19.4711C14.7387 19.3433 14.8854 19.2661 15.0427 19.2628L15.0015 17.2632ZM13.021 18.3064L7.876 25.5034L9.50301 26.6666L14.648 19.4696L13.021 18.3064Z" fill="#014AFF"/>
</svg>
