<svg width="36" height="36" viewBox="0 0 36 36" fill="none" xmlns="http://www.w3.org/2000/svg">
<path fill-rule="evenodd" clip-rule="evenodd" d="M15.3383 17.0953C15.3593 15.6295 16.5611 14.4562 18.027 14.4705C19.493 14.4847 20.6717 15.681 20.6643 17.147C20.6569 18.613 19.4661 19.7973 18 19.7967C16.5204 19.7827 15.3304 18.5751 15.3383 17.0953V17.0953Z" stroke="#014AFF" stroke-width="2.5" stroke-linecap="round" stroke-linejoin="round"/>
<path d="M5.95716 13.3764C5.39607 13.7786 5.26728 14.5595 5.66949 15.1206C6.0717 15.6817 6.85261 15.8105 7.41369 15.4083L5.95716 13.3764ZM13.3936 9.58367L14.1218 10.5996L14.1232 10.5986L13.3936 9.58367ZM22.605 9.58367L21.8754 10.5986L21.8769 10.5997L22.605 9.58367ZM28.5864 15.4084C29.1475 15.8105 29.9284 15.6817 30.3306 15.1205C30.7327 14.5594 30.6039 13.7785 30.0427 13.3764L28.5864 15.4084ZM10.5972 17.0953C10.5972 16.405 10.0376 15.8453 9.34723 15.8453C8.65687 15.8453 8.09723 16.405 8.09723 17.0953H10.5972ZM9.34723 22.4994L10.5972 22.5087V22.4994H9.34723ZM10.8904 26.3044L11.7808 25.427L11.7808 25.427L10.8904 26.3044ZM14.6721 27.9036L14.663 29.1536H14.6721V27.9036ZM21.3279 27.9036L21.3279 29.1536L21.3371 29.1535L21.3279 27.9036ZM25.1097 26.3044L26.0001 27.1817L26.0001 27.1817L25.1097 26.3044ZM26.6529 22.4994L25.4028 22.4994L25.4029 22.5087L26.6529 22.4994ZM27.9029 17.0953C27.9029 16.405 27.3432 15.8453 26.6529 15.8453C25.9625 15.8453 25.4029 16.405 25.4029 17.0953H27.9029ZM7.41369 15.4083L14.1218 10.5996L12.6653 8.56773L5.95716 13.3764L7.41369 15.4083ZM14.1232 10.5986C16.4391 8.93376 19.5595 8.93376 21.8754 10.5986L23.3347 8.56871C20.1469 6.27706 15.8517 6.27706 12.6639 8.56871L14.1232 10.5986ZM21.8769 10.5997L28.5864 15.4084L30.0427 13.3764L23.3332 8.56766L21.8769 10.5997ZM8.09723 17.0953V22.4994H10.5972V17.0953H8.09723ZM8.09726 22.4902C8.08426 24.2445 8.76871 25.9321 10 27.1817L11.7808 25.427C11.0149 24.6497 10.5891 23.5999 10.5972 22.5087L8.09726 22.4902ZM10 27.1817C11.2313 28.4313 12.9087 29.1406 14.663 29.1535L14.6813 26.6536C13.5901 26.6456 12.5467 26.2044 11.7808 25.427L10 27.1817ZM14.6721 29.1536H21.3279V26.6536H14.6721V29.1536ZM21.3371 29.1535C23.0914 29.1406 24.7688 28.4313 26.0001 27.1817L24.2193 25.427C23.4534 26.2044 22.41 26.6456 21.3188 26.6536L21.3371 29.1535ZM26.0001 27.1817C27.2314 25.9321 27.9158 24.2445 27.9028 22.4902L25.4029 22.5087C25.411 23.5999 24.9852 24.6497 24.2193 25.427L26.0001 27.1817ZM27.9029 22.4994V17.0953H25.4029V22.4994H27.9029Z" fill="#014AFF"/>
</svg>
