<svg width="36" height="36" viewBox="0 0 36 36" fill="none" xmlns="http://www.w3.org/2000/svg">
<path fill-rule="evenodd" clip-rule="evenodd" d="M6 21.693V18.807C6.03193 17.5022 7.11465 16.4698 8.4195 16.5H9.411C10.2631 13.8639 12.6922 12.0575 15.462 12H20.538C23.3078 12.0575 25.7369 13.8639 26.589 16.5C26.8623 17.2846 27.0013 18.1097 27 18.9405V21.5595C27.1274 25.2587 24.2369 28.3633 20.538 28.5H15.462C12.6922 28.4425 10.2631 26.6361 9.411 24H8.4195C7.11465 24.0302 6.03193 22.9978 6 21.693Z" stroke="#014AFF" stroke-width="2" stroke-linecap="round" stroke-linejoin="round"/>
<path fill-rule="evenodd" clip-rule="evenodd" d="M21 18.75C21 20.4069 19.6569 21.75 18 21.75C16.3431 21.75 15 20.4069 15 18.75C15 17.0931 16.3431 15.75 18 15.75C19.6569 15.75 21 17.0931 21 18.75Z" stroke="#014AFF" stroke-width="2" stroke-linecap="round" stroke-linejoin="round"/>
<path d="M19 7.5C19 6.94772 18.5523 6.5 18 6.5C17.4477 6.5 17 6.94772 17 7.5H19ZM17 12C17 12.5523 17.4477 13 18 13C18.5523 13 19 12.5523 19 12H17ZM8.46668 24.329C8.64838 24.8505 9.21847 25.126 9.74001 24.9443C10.2615 24.7626 10.537 24.1925 10.3553 23.671L8.46668 24.329ZM9.00001 21.5595L10 21.5611V21.5595H9.00001ZM9.00001 18.9405L10 18.9405L10 18.9389L9.00001 18.9405ZM10.3553 16.829C10.537 16.3075 10.2615 15.7374 9.74001 15.5557C9.21847 15.374 8.64838 15.6495 8.46668 16.171L10.3553 16.829ZM26.589 15.5C26.0367 15.5 25.589 15.9477 25.589 16.5C25.589 17.0523 26.0367 17.5 26.589 17.5V15.5ZM27.5805 16.5V17.5C27.5882 17.5 27.5959 17.4999 27.6036 17.4997L27.5805 16.5ZM30 18.807H31C31 18.7988 30.9999 18.7907 30.9997 18.7825L30 18.807ZM30 21.693L30.9997 21.7175C30.9999 21.7093 31 21.7012 31 21.693L30 21.693ZM27.5805 24L27.6036 23.0003C27.5959 23.0001 27.5882 23 27.5805 23L27.5805 24ZM26.589 23C26.0367 23 25.589 23.4477 25.589 24C25.589 24.5523 26.0367 25 26.589 25V23ZM15 23.75C14.4477 23.75 14 24.1977 14 24.75C14 25.3023 14.4477 25.75 15 25.75V23.75ZM21 25.75C21.5523 25.75 22 25.3023 22 24.75C22 24.1977 21.5523 23.75 21 23.75V25.75ZM17 7.5V12H19V7.5H17ZM10.3553 23.671C10.119 22.9927 9.99889 22.2794 10 21.5611L8.00001 21.5579C7.99854 22.5013 8.15631 23.4382 8.46668 24.329L10.3553 23.671ZM10 21.5595V18.9405H8.00001V21.5595H10ZM10 18.9389C9.99889 18.2206 10.119 17.5073 10.3553 16.829L8.46668 16.171C8.15631 17.0618 7.99854 17.9987 8.00001 18.9421L10 18.9389ZM26.589 17.5H27.5805V15.5H26.589V17.5ZM27.6036 17.4997C28.3569 17.4823 28.9819 18.0783 29.0003 18.8315L30.9997 18.7825C30.9543 16.9261 29.4138 15.4573 27.5574 15.5003L27.6036 17.4997ZM29 18.807V21.693H31V18.807H29ZM29.0003 21.6685C28.9819 22.4217 28.3569 23.0177 27.6036 23.0003L27.5574 24.9997C29.4138 25.0427 30.9543 23.5739 30.9997 21.7175L29.0003 21.6685ZM27.5805 23H26.589V25H27.5805V23ZM15 25.75H21V23.75H15V25.75Z" fill="#014AFF"/>
</svg>
