<svg width="36" height="36" viewBox="0 0 36 36" fill="none" xmlns="http://www.w3.org/2000/svg">
<path fill-rule="evenodd" clip-rule="evenodd" d="M14.2369 12.8908C13.0763 14.6326 12.0323 16.3761 11.3911 17.5196L9.78134 15.8481C8.77992 14.7903 8.77992 13.1343 9.78134 12.0765C10.2553 11.5793 10.9116 11.2969 11.5986 11.2947H15.3444C14.9707 11.8073 14.5987 12.3422 14.2369 12.8908Z" stroke="#014AFF" stroke-width="2" stroke-linecap="round" stroke-linejoin="round"/>
<path fill-rule="evenodd" clip-rule="evenodd" d="M23.1089 21.7625C21.3671 22.9231 19.6236 23.9672 18.4801 24.6083L20.1516 26.2181C21.2094 27.2195 22.8654 27.2195 23.9232 26.2181C24.4204 25.7441 24.7027 25.0878 24.7049 24.4009V20.655C24.1923 21.0288 23.6575 21.4008 23.1089 21.7625Z" stroke="#014AFF" stroke-width="2" stroke-linecap="round" stroke-linejoin="round"/>
<path d="M10.6824 20.7637C11.0728 20.3731 11.0727 19.74 10.6821 19.3495C10.2914 18.9591 9.65828 18.9592 9.26784 19.3498L10.6824 20.7637ZM5.29225 23.3271C4.90181 23.7177 4.90195 24.3509 5.29256 24.7413C5.68317 25.1318 6.31633 25.1316 6.70677 24.741L5.29225 23.3271ZM13.6637 23.7484C14.0541 23.3577 14.0538 22.7245 13.6631 22.3341C13.2724 21.9438 12.6393 21.9441 12.2489 22.3348L13.6637 23.7484ZM10.2637 24.3217C9.87335 24.7124 9.87362 25.3456 10.2643 25.7359C10.655 26.1263 11.2882 26.126 11.6785 25.7353L10.2637 24.3217ZM12.0974 16.8046C11.7064 16.4146 11.0733 16.4153 10.6832 16.8063C10.2932 17.1973 10.2939 17.8305 10.6849 18.2206L12.0974 16.8046ZM14.9433 21.0562L15.6513 20.3499L15.6496 20.3482L14.9433 21.0562ZM17.7789 25.3146C18.169 25.7056 18.8022 25.7063 19.1932 25.3163C19.5842 24.9262 19.5849 24.2931 19.1949 23.9021L17.7789 25.3146ZM14.5145 10.7267C14.2064 11.1851 14.3283 11.8064 14.7867 12.1144C15.2451 12.4225 15.8664 12.3006 16.1745 11.8422L14.5145 10.7267ZM18.4612 7.63112L17.822 6.86208C17.8075 6.8741 17.7934 6.88653 17.7796 6.89934L18.4612 7.63112ZM29.8393 6.16021L30.8344 6.06106C30.7872 5.58718 30.4124 5.21235 29.9385 5.16513L29.8393 6.16021ZM28.3684 17.5401L29.1002 18.2216C29.1131 18.2078 29.1256 18.1936 29.1377 18.179L28.3684 17.5401ZM24.1574 19.8268C23.699 20.1348 23.5771 20.7561 23.8851 21.2145C24.1932 21.6729 24.8145 21.7948 25.2729 21.4868L24.1574 19.8268ZM16.6497 26.7316C17.0403 26.3412 17.0404 25.708 16.65 25.3174C16.2596 24.9268 15.6264 24.9267 15.2358 25.3171L16.6497 26.7316ZM11.2585 29.2927C10.8679 29.6832 10.8677 30.3163 11.2582 30.7069C11.6486 31.0975 12.2818 31.0977 12.6724 30.7072L11.2585 29.2927ZM26.132 11.2816C26.5225 10.8911 26.5225 10.258 26.132 9.86743C25.7414 9.4769 25.1083 9.4769 24.7178 9.86743L26.132 11.2816ZM22.5971 11.9881C22.2066 12.3786 22.2066 13.0118 22.5971 13.4023C22.9876 13.7928 23.6208 13.7928 24.0113 13.4023L22.5971 11.9881ZM9.26784 19.3498L5.29225 23.3271L6.70677 24.741L10.6824 20.7637L9.26784 19.3498ZM12.2489 22.3348L10.2637 24.3217L11.6785 25.7353L13.6637 23.7484L12.2489 22.3348ZM10.6849 18.2206L14.2371 21.7641L15.6496 20.3482L12.0974 16.8046L10.6849 18.2206ZM14.2354 21.7624L17.7789 25.3146L19.1949 23.9021L15.6513 20.3499L14.2354 21.7624ZM16.1745 11.8422C17.0276 10.5727 18.0235 9.4053 19.1427 8.3629L17.7796 6.89934C16.5484 8.04602 15.4529 9.33019 14.5145 10.7267L16.1745 11.8422ZM19.1004 8.40016C19.4983 8.0694 20.1488 7.77364 21.0366 7.54199C21.9086 7.31444 22.9297 7.16886 23.9976 7.08653C26.1341 6.92182 28.3574 7.01749 29.7402 7.15528L29.9385 5.16513C28.4652 5.01833 26.1215 4.91686 23.8439 5.09245C22.7048 5.18027 21.5571 5.3392 20.5316 5.60678C19.5219 5.87025 18.5461 6.26024 17.822 6.86208L19.1004 8.40016ZM28.8443 6.25935C28.9821 7.64217 29.0777 9.86547 28.913 12.0022C28.8307 13.0702 28.6851 14.0914 28.4576 14.9638C28.2259 15.8518 27.9301 16.5027 27.5992 16.9012L29.1377 18.179C29.7394 17.4546 30.1293 16.4786 30.3928 15.4686C30.6604 14.4429 30.8193 13.2951 30.9071 12.1559C31.0827 9.8781 30.9812 7.53436 30.8344 6.06106L28.8443 6.25935ZM27.6367 16.8586C26.5943 17.9778 25.4269 18.9737 24.1574 19.8268L25.2729 21.4868C26.6694 20.5484 27.9535 19.4528 29.1002 18.2216L27.6367 16.8586ZM15.2358 25.3171L11.2585 29.2927L12.6724 30.7072L16.6497 26.7316L15.2358 25.3171ZM24.7178 9.86743L22.5971 11.9881L24.0113 13.4023L26.132 11.2816L24.7178 9.86743Z" fill="#014AFF"/>
</svg>
