<svg width="36" height="36" viewBox="0 0 36 36" fill="none" xmlns="http://www.w3.org/2000/svg">
<path fill-rule="evenodd" clip-rule="evenodd" d="M18 21C16.3431 21 15 19.6569 15 18C15 16.3431 16.3431 15 18 15C19.6569 15 21 16.3431 21 18C21 18.7956 20.6839 19.5587 20.1213 20.1213C19.5587 20.6839 18.7956 21 18 21Z" stroke="#666666" stroke-width="2" stroke-linecap="round" stroke-linejoin="round"/>
<path fill-rule="evenodd" clip-rule="evenodd" d="M25.9755 24.0945V22.0815C25.9755 21.583 26.1735 21.105 26.526 20.7525L27.9495 19.329C28.6835 18.595 28.6835 17.405 27.9495 16.671L26.526 15.2475C26.1735 14.895 25.9755 14.417 25.9755 13.9185V11.904C25.9755 10.866 25.134 10.0245 24.096 10.0245H22.0815C21.583 10.0245 21.105 9.82646 20.7525 9.47399L19.329 8.05049C18.595 7.3165 17.405 7.3165 16.671 8.05049L15.2475 9.47399C14.895 9.82646 14.417 10.0245 13.9185 10.0245H11.904C11.4053 10.0245 10.927 10.2227 10.5744 10.5755C10.2219 10.9283 10.0241 11.4068 10.0245 11.9055V13.9185C10.0245 14.417 9.82646 14.895 9.47399 15.2475L8.05049 16.671C7.3165 17.405 7.3165 18.595 8.05049 19.329L9.47399 20.7525C9.82646 21.105 10.0245 21.583 10.0245 22.0815V24.0945C10.0245 25.1325 10.866 25.974 11.904 25.974H13.9185C14.417 25.974 14.895 26.172 15.2475 26.5245L16.671 27.948C17.405 28.682 18.595 28.682 19.329 27.948L20.7525 26.5245C21.105 26.172 21.583 25.974 22.0815 25.974H24.0945C24.5932 25.9744 25.0717 25.7765 25.4245 25.424C25.7773 25.0715 25.9755 24.5932 25.9755 24.0945Z" stroke="#666666" stroke-width="2" stroke-linecap="round" stroke-linejoin="round"/>
</svg>
