<svg width="34" height="30" viewBox="0 0 34 30" fill="none" xmlns="http://www.w3.org/2000/svg">
<path fill-rule="evenodd" clip-rule="evenodd" d="M1 19.924V16.076C1.04257 14.3363 2.4862 12.9598 4.226 13H5.548C6.68417 9.48522 9.92294 7.07661 13.616 7H20.384C24.0771 7.07661 27.3158 9.48522 28.452 13C28.8165 14.0461 29.0017 15.1462 29 16.254V19.746C29.1699 24.6783 25.3159 28.8177 20.384 29H13.616C9.92294 28.9234 6.68417 26.5148 5.548 23H4.226C2.4862 23.0402 1.04257 21.6637 1 19.924Z" stroke="#4A67FF" stroke-width="2" stroke-linecap="round" stroke-linejoin="round"/>
<path fill-rule="evenodd" clip-rule="evenodd" d="M21 16C21 18.2091 19.2091 20 17 20C14.7909 20 13 18.2091 13 16C13 13.7909 14.7909 12 17 12C19.2091 12 21 13.7909 21 16Z" stroke="#4A67FF" stroke-width="2" stroke-linecap="round" stroke-linejoin="round"/>
<path d="M18 1C18 0.447715 17.5523 0 17 0C16.4477 0 16 0.447715 16 1H18ZM16 7C16 7.55228 16.4477 8 17 8C17.5523 8 18 7.55228 18 7H16ZM4.60368 23.329C4.78538 23.8505 5.35547 24.126 5.87701 23.9443C6.39855 23.7626 6.67404 23.1925 6.49234 22.671L4.60368 23.329ZM5.00001 19.746L6.00001 19.7476V19.746H5.00001ZM5.00001 16.254H6.00001L6.00001 16.2524L5.00001 16.254ZM6.49234 13.329C6.67404 12.8075 6.39855 12.2374 5.87701 12.0557C5.35547 11.874 4.78538 12.1495 4.60368 12.671L6.49234 13.329ZM28.452 12C27.8997 12 27.452 12.4477 27.452 13C27.452 13.5523 27.8997 14 28.452 14V12ZM29.774 13V14C29.7817 14 29.7894 13.9999 29.7971 13.9997L29.774 13ZM33 16.076H34C34 16.0678 33.9999 16.0597 33.9997 16.0515L33 16.076ZM33 19.924L33.9997 19.9485C33.9999 19.9403 34 19.9322 34 19.924H33ZM29.774 23L29.7971 22.0003C29.7894 22.0001 29.7817 22 29.774 22V23ZM28.452 22C27.8997 22 27.452 22.4477 27.452 23C27.452 23.5523 27.8997 24 28.452 24V22ZM13 23C12.4477 23 12 23.4477 12 24C12 24.5523 12.4477 25 13 25V23ZM21 25C21.5523 25 22 24.5523 22 24C22 23.4477 21.5523 23 21 23V25ZM16 1V7H18V1H16ZM6.49234 22.671C6.16491 21.7312 5.99846 20.7428 6.00001 19.7476L4.00001 19.7444C3.99811 20.9647 4.2022 22.1766 4.60368 23.329L6.49234 22.671ZM6.00001 19.746V16.254H4.00001V19.746H6.00001ZM6.00001 16.2524C5.99846 15.2572 6.16491 14.2688 6.49234 13.329L4.60368 12.671C4.2022 13.8234 3.99811 15.0353 4.00001 16.2556L6.00001 16.2524ZM28.452 14H29.774V12H28.452V14ZM29.7971 13.9997C30.9853 13.9722 31.9712 14.9123 32.0003 16.1005L33.9997 16.0515C33.9436 13.7602 32.0423 11.9473 29.7509 12.0003L29.7971 13.9997ZM32 16.076V19.924H34V16.076H32ZM32.0003 19.8995C31.9712 21.0877 30.9853 22.0278 29.7971 22.0003L29.7509 23.9997C32.0423 24.0527 33.9436 22.2398 33.9997 19.9485L32.0003 19.8995ZM29.774 22H28.452V24H29.774V22ZM13 25H21V23H13V25Z" fill="#4A67FF"/>
</svg>
