<svg width="30" height="30" viewBox="0 0 30 30" fill="none" xmlns="http://www.w3.org/2000/svg">
<path fill-rule="evenodd" clip-rule="evenodd" d="M10.738 21.438C13.1987 23.52 16.8033 23.52 19.264 21.438C20.0381 20.7839 20.6351 19.9455 21 19C19.014 19.311 17.0096 19.4901 15 19.536C12.9904 19.49 10.986 19.3109 9 19C9.36546 19.9457 9.96317 20.7841 10.738 21.438Z" stroke="#FE9950" stroke-width="2" stroke-linecap="round" stroke-linejoin="round"/>
<path d="M20.0851 13.4037C20.308 13.9089 20.8984 14.1378 21.4037 13.9149C21.9089 13.692 22.1378 13.1016 21.9149 12.5963L20.0851 13.4037ZM16.0851 12.5963C15.8622 13.1016 16.0911 13.692 16.5963 13.9149C17.1016 14.1378 17.692 13.9089 17.9149 13.4037L16.0851 12.5963ZM8 13C8 13.5523 8.44772 14 9 14C9.55229 14 10 13.5523 10 13H8ZM10 11C10 10.4477 9.55229 10 9 10C8.44772 10 8 10.4477 8 11H10ZM24.8995 5.10051L24.1924 5.80761V5.80761L24.8995 5.10051ZM21.9149 12.5963C21.4054 11.4415 20.2622 10.6964 19 10.6964V12.6964C19.4699 12.6964 19.8954 12.9738 20.0851 13.4037L21.9149 12.5963ZM19 10.6964C17.7378 10.6964 16.5946 11.4415 16.0851 12.5963L17.9149 13.4037C18.1046 12.9738 18.5301 12.6964 19 12.6964V10.6964ZM10 13V11H8V13H10ZM28 15C28 22.1797 22.1797 28 15 28V30C23.2843 30 30 23.2843 30 15H28ZM15 28C7.8203 28 2 22.1797 2 15H0C0 23.2843 6.71573 30 15 30V28ZM2 15C2 7.8203 7.8203 2 15 2V0C6.71573 0 0 6.71573 0 15H2ZM15 2C18.4478 2 21.7544 3.36964 24.1924 5.80761L25.6066 4.3934C22.7936 1.58035 18.9782 0 15 0V2ZM24.1924 5.80761C26.6304 8.24558 28 11.5522 28 15H30C30 11.0218 28.4196 7.20644 25.6066 4.3934L24.1924 5.80761Z" fill="#FE9950"/>
</svg>
