<svg width="30" height="34" viewBox="0 0 30 34" fill="none" xmlns="http://www.w3.org/2000/svg">
<path d="M9 6C9.55228 6 10 5.55229 10 5C10 4.44772 9.55228 4 9 4V6ZM21 4C20.4477 4 20 4.44772 20 5C20 5.55229 20.4477 6 21 6V4ZM9 4C8.44772 4 8 4.44772 8 5C8 5.55228 8.44772 6 9 6V4ZM21 6C21.5523 6 22 5.55228 22 5C22 4.44772 21.5523 4 21 4V6ZM10 5C10 4.44772 9.55228 4 9 4C8.44772 4 8 4.44772 8 5H10ZM8 7C8 7.55228 8.44772 8 9 8C9.55228 8 10 7.55228 10 7H8ZM8 5C8 5.55228 8.44772 6 9 6C9.55228 6 10 5.55228 10 5H8ZM10 1C10 0.447715 9.55228 0 9 0C8.44772 0 8 0.447715 8 1L10 1ZM22 5C22 4.44772 21.5523 4 21 4C20.4477 4 20 4.44772 20 5L22 5ZM20 7C20 7.55228 20.4477 8 21 8C21.5523 8 22 7.55228 22 7L20 7ZM20 5C20 5.55228 20.4477 6 21 6C21.5523 6 22 5.55228 22 5H20ZM22 1C22 0.447715 21.5523 0 21 0C20.4477 0 20 0.447715 20 1H22ZM9 4C4.02943 4 -3.8147e-06 8.02944 -3.8147e-06 13H2C2 9.13401 5.134 6 9 6V4ZM-3.8147e-06 13V25H2V13H-3.8147e-06ZM-3.8147e-06 25C-3.8147e-06 29.9706 4.02943 34 9 34V32C5.134 32 2 28.866 2 25H-3.8147e-06ZM9 34H21V32H9V34ZM21 34C25.9706 34 30 29.9706 30 25H28C28 28.866 24.866 32 21 32V34ZM30 25V13H28V25H30ZM30 13C30 8.02944 25.9706 4 21 4V6C24.866 6 28 9.13401 28 13H30ZM9 6H21V4L9 4V6ZM8 5V7H10V5H8ZM10 5V1L8 1V5H10ZM20 5V7L22 7V5L20 5ZM22 5V1H20V5H22Z" fill="#4EAAFF"/>
<path d="M7 19L11 25L23 15" stroke="#4EAAFF" stroke-width="2" stroke-linecap="round" stroke-linejoin="round"/>
</svg>
