<svg width="30" height="36" viewBox="0 0 30 36" fill="none" xmlns="http://www.w3.org/2000/svg">
<path fill-rule="evenodd" clip-rule="evenodd" d="M29 21C29 28.732 22.732 35 15 35C7.26801 35 1 28.732 1 21C1 13.268 7.26801 7 15 7C18.713 7 22.274 8.475 24.8995 11.1005C27.525 13.726 29 17.287 29 21Z" stroke="#63AA09" stroke-width="2" stroke-linecap="round" stroke-linejoin="round"/>
<path fill-rule="evenodd" clip-rule="evenodd" d="M17 21.9299C17 23.5868 15.6569 24.9299 14 24.9299C12.3431 24.9299 11 23.5868 11 21.9299C11 20.2731 12.3431 18.9299 14 18.9299C15.6569 18.9299 17 20.2731 17 21.9299Z" stroke="#63AA09" stroke-width="2" stroke-linecap="round" stroke-linejoin="round"/>
<path d="M14 7C14 7.55228 14.4477 8 15 8C15.5523 8 16 7.55228 16 7H14ZM16 1C16 0.447715 15.5523 0 15 0C14.4477 0 14 0.447715 14 1H16ZM21.6371 15.7071C22.0276 15.3166 22.0276 14.6834 21.6371 14.2929C21.2466 13.9024 20.6134 13.9024 20.2229 14.2929L21.6371 15.7071ZM15.4229 19.0929C15.0324 19.4834 15.0324 20.1166 15.4229 20.5071C15.8134 20.8976 16.4466 20.8976 16.8371 20.5071L15.4229 19.0929ZM19 2C19.5523 2 20 1.55228 20 1C20 0.447715 19.5523 0 19 0V2ZM11 0C10.4477 0 10 0.447715 10 1C10 1.55228 10.4477 2 11 2V0ZM29.7399 7.47267C30.1114 7.06402 30.0813 6.43157 29.6727 6.06006C29.264 5.68855 28.6316 5.71867 28.2601 6.12733L29.7399 7.47267ZM24.2601 10.5273C23.8886 10.936 23.9187 11.5684 24.3273 11.9399C24.736 12.3114 25.3684 12.2813 25.7399 11.8727L24.2601 10.5273ZM1.70711 6.09289C1.31658 5.70237 0.683417 5.70237 0.292893 6.09289C-0.0976311 6.48342 -0.0976311 7.11658 0.292893 7.50711L1.70711 6.09289ZM4.49289 11.7071C4.88342 12.0976 5.51658 12.0976 5.90711 11.7071C6.29763 11.3166 6.29763 10.6834 5.90711 10.2929L4.49289 11.7071ZM16 7V1H14V7H16ZM20.2229 14.2929L15.4229 19.0929L16.8371 20.5071L21.6371 15.7071L20.2229 14.2929ZM19 0H11V2H19V0ZM28.2601 6.12733L24.2601 10.5273L25.7399 11.8727L29.7399 7.47267L28.2601 6.12733ZM0.292893 7.50711L4.49289 11.7071L5.90711 10.2929L1.70711 6.09289L0.292893 7.50711Z" fill="#63AA09"/>
</svg>
