<svg width="64" height="64" viewBox="0 0 64 64" fill="none" xmlns="http://www.w3.org/2000/svg">
<circle cx="32" cy="32" r="32" fill="#83ADFF"/>
<path fill-rule="evenodd" clip-rule="evenodd" d="M30.0189 15.2491L25.9205 21.0791L18.4197 21.7494C17.628 22.7799 16.9531 23.9042 16.4144 25.1025L19.6153 32.0001L16.4144 38.8977C16.9531 40.096 17.628 41.2203 18.4197 42.2508L25.9205 42.9211L30.0189 48.7511C30.5988 48.8115 31.1879 48.8424 31.7845 48.8424C32.7181 48.8424 33.6332 48.7666 34.5241 48.6209L38.5309 42.9211L45.0838 42.3355C46.1241 40.999 46.9669 39.5023 47.569 37.8891L44.8362 32.0001L47.569 26.111C46.9669 24.4979 46.1241 23.0012 45.0839 21.6647L38.5309 21.0791L34.524 15.3792C33.6332 15.2336 32.7181 15.1577 31.7845 15.1577C31.1879 15.1577 30.5988 15.1887 30.0189 15.2491ZM29.1476 12.8361C30.0104 12.7184 30.8907 12.6577 31.7845 12.6577C33.0503 12.6577 34.2889 12.7795 35.4888 13.0123L35.9835 13.1083L39.909 18.6923L46.3554 19.2683L46.6878 19.6697C48.1701 21.4594 49.3369 23.5217 50.1016 25.771L50.2628 26.2452L47.5922 32.0001L50.2628 37.755L50.1016 38.2292C49.3369 40.4785 48.1701 42.5407 46.6877 44.3305L46.3553 44.7318L39.909 45.3079L35.9836 50.8919L35.4889 50.9879C34.289 51.2207 33.0504 51.3424 31.7845 51.3424C30.8907 51.3424 30.0103 51.2817 29.1476 51.164L28.6074 51.0904L24.5425 45.3079L17.1392 44.6463L16.8064 44.2396C15.6085 42.7752 14.6206 41.1312 13.8894 39.3537L13.6814 38.848L16.8592 32.0001L13.6814 25.1521L13.8894 24.6464C14.6206 22.8689 15.6084 21.225 16.8064 19.7606L17.1392 19.3538L24.5425 18.6923L28.6074 12.9098L29.1476 12.8361Z" fill="white"/>
<path d="M24.822 27.0039L21 36.9999H22.75L23.66 34.4939H27.846L28.756 36.9999H30.506L26.684 27.0039H24.822ZM24.15 33.1499L25.732 28.7679H25.788L27.356 33.1499H24.15Z" fill="white"/>
<path d="M31.482 27.0039V36.9999H33.12V33.1639H35.598C38.034 33.1639 39.252 32.1279 39.252 30.0699C39.252 28.0259 38.034 27.0039 35.626 27.0039H31.482ZM33.12 28.4039H35.5C36.214 28.4039 36.746 28.5299 37.082 28.7959C37.418 29.0479 37.6 29.4679 37.6 30.0699C37.6 30.6719 37.432 31.1059 37.096 31.3719C36.76 31.6239 36.228 31.7639 35.5 31.7639H33.12V28.4039Z" fill="white"/>
<path d="M40.6558 27.0039V36.9999H42.2938V27.0039H40.6558Z" fill="white"/>
<path fill-rule="evenodd" clip-rule="evenodd" d="M24.6499 26.7539H26.856L30.8692 37.2499H28.5808L27.6708 34.7439H23.8351L22.9251 37.2499H20.6367L24.6499 26.7539ZM23.66 34.4939H27.846L28.756 36.9999H30.506L26.684 27.0039H24.822L21 36.9999H22.75L23.66 34.4939ZM24.15 33.1499H27.356L25.788 28.7679H25.732L24.15 33.1499ZM24.506 32.8999H27.001L25.759 29.4291L24.506 32.8999ZM31.2319 26.7539H35.6259C36.8594 26.7539 37.8342 27.0148 38.5031 27.5794C39.1801 28.1507 39.5019 28.9968 39.5019 30.0699C39.5019 31.1495 39.1805 32.0026 38.5001 32.5794C37.8275 33.1495 36.8455 33.4139 35.5979 33.4139H33.3699V37.2499H31.2319V26.7539ZM33.1199 36.9999H31.4819V27.0039H35.6259C38.0339 27.0039 39.2519 28.0259 39.2519 30.0699C39.2519 32.1279 38.0339 33.1639 35.5979 33.1639H33.1199V36.9999ZM37.0819 28.7959C36.7459 28.5299 36.2139 28.4039 35.4999 28.4039H33.1199V31.7639H35.4999C36.2279 31.7639 36.7599 31.6239 37.0959 31.3719C37.4319 31.1059 37.5999 30.6719 37.5999 30.0699C37.5999 29.4679 37.4179 29.0479 37.0819 28.7959ZM36.9433 31.1739C37.1963 30.9721 37.3499 30.6262 37.3499 30.0699C37.3499 29.5179 37.1851 29.1858 36.9319 28.9959L36.9267 28.992C36.6574 28.7788 36.1954 28.6539 35.4999 28.6539H33.3699V31.5139H35.4999C36.2016 31.5139 36.6693 31.378 36.9433 31.1739ZM40.4057 26.7539H42.5437V37.2499H40.4057V26.7539ZM40.6557 36.9999V27.0039H42.2937V36.9999H40.6557Z" fill="white"/>
</svg>
