<svg width="32" height="32" viewBox="0 0 32 32" fill="none" xmlns="http://www.w3.org/2000/svg">
<circle cx="16" cy="16" r="16" fill="#FE9950"/>
<path d="M12.5 15H19.5" stroke="white" stroke-width="1.25"/>
<path d="M12.5 18.5H16" stroke="white" stroke-width="1.25"/>
<path d="M19 8.5V11.4C19 11.4552 19.0448 11.5 19.1 11.5H22" stroke="white"/>
<path d="M10.125 9C10.125 8.79289 10.2929 8.625 10.5 8.625H14.25H16H19.5765C19.678 8.625 19.7752 8.66616 19.8458 8.73908L21.0511 9.98326L21.7693 10.7247C21.8371 10.7946 21.875 10.8882 21.875 10.9856V15.7419V23C21.875 23.2071 21.7071 23.375 21.5 23.375H10.5C10.2929 23.375 10.125 23.2071 10.125 23V9Z" stroke="white" stroke-width="1.25"/>
</svg>
