<svg width="99" height="18" viewBox="0 0 99 18" fill="none" xmlns="http://www.w3.org/2000/svg">
<path fill-rule="evenodd" clip-rule="evenodd" d="M99 0.75V3.97826H92.1848V7.20652H99V10.4348H92.1848V14.0217H99V17.25H88.9565V0.75H99ZM18.2935 1.1087L22.2588 9.89674L26.1848 1.1087H29.4085L24.0326 12.9457V17.25H20.4457V12.9457L15.0652 1.1087H18.2935ZM49.8587 1.1087V14.0217H55.9565V17.25H46.6304V1.1087H49.8587ZM64.2065 0.75C68.7629 0.75 72.4565 4.44365 72.4565 9C72.4565 13.5564 68.7629 17.25 64.2065 17.25C59.6502 17.25 55.9565 13.5564 55.9565 9C55.9565 4.44365 59.6502 0.75 64.2065 0.75ZM76.7609 0.75V11.8696L83.9348 0.75H87.163V17.25H83.9348V6.48913L76.7609 17.25H73.5326V0.75H76.7609ZM8.03373 0.75C10.9365 0.75 13.5691 2.3113 14.9927 4.78577L15.0652 4.91458L12.2737 6.48556C11.4277 4.95133 9.81762 3.97826 8.03373 3.97826C5.35912 3.97826 3.19545 6.14882 3.19545 8.82065C3.19545 11.4925 5.35912 13.663 8.03373 13.663C9.68385 13.663 11.188 12.8314 12.0766 11.4821L12.142 11.38L14.8456 13.1009C13.3866 15.4402 10.8325 16.8913 8.03373 16.8913C3.59933 16.8913 0 13.2805 0 8.82065C0 4.3608 3.59933 0.75 8.03373 0.75ZM37.4468 0.75C40.3495 0.75 42.9821 2.3113 44.4057 4.78577L44.4783 4.91458L41.6867 6.48556C40.8408 4.95133 39.2307 3.97826 37.4468 3.97826C34.7722 3.97826 32.6085 6.14882 32.6085 8.82065C32.6085 11.4925 34.7722 13.663 37.4468 13.663C39.0969 13.663 40.6011 12.8314 41.4896 11.4821L41.5551 11.38L44.2587 13.1009C42.7997 15.4402 40.2456 16.8913 37.4468 16.8913C33.0124 16.8913 29.413 13.2805 29.413 8.82065C29.413 4.3608 33.0124 0.75 37.4468 0.75ZM64.2065 3.97826C61.4331 3.97826 59.1848 6.22657 59.1848 9C59.1848 11.7734 61.4331 14.0217 64.2065 14.0217C66.9799 14.0217 69.2283 11.7734 69.2283 9C69.2283 6.22657 66.9799 3.97826 64.2065 3.97826Z" fill="white"/>
</svg>
