<svg width="32" height="32" viewBox="0 0 32 32" fill="none" xmlns="http://www.w3.org/2000/svg">
<circle cx="16" cy="16" r="16" fill="#80ABFF"/>
<path d="M15.5625 7.97428C15.8333 7.81797 16.1668 7.81797 16.4375 7.97428L22.7318 11.6083C23.0025 11.7646 23.1693 12.0534 23.1693 12.366V19.634C23.1693 19.9466 23.0025 20.2354 22.7318 20.3917L16.4375 24.0257C16.1668 24.182 15.8333 24.182 15.5625 24.0257L9.26831 20.3917C8.99758 20.2354 8.83081 19.9466 8.83081 19.634V12.366C8.83081 12.0534 8.99758 11.7646 9.26831 11.6083L15.5625 7.97428Z" stroke="white" stroke-width="1.25"/>
<path d="M16 11.5V16L12 18.25" stroke="white" stroke-width="1.25" stroke-linecap="round"/>
<path d="M16 16L20 18.5" stroke="white" stroke-width="1.25" stroke-linecap="round"/>
</svg>
