<?xml version="1.0" standalone="no"?><!DOCTYPE svg PUBLIC "-//W3C//DTD SVG 1.1//EN" "http://www.w3.org/Graphics/SVG/1.1/DTD/svg11.dtd"><svg t="1652838452188" class="icon" viewBox="0 0 1024 1024" version="1.1" xmlns="http://www.w3.org/2000/svg" p-id="68280" width="32" height="32" xmlns:xlink="http://www.w3.org/1999/xlink"><defs><style type="text/css">@font-face { font-family: feedback-iconfont; src: url("//at.alicdn.com/t/font_1031158_u69w8yhxdu.woff2?t=1630033759944") format("woff2"), url("//at.alicdn.com/t/font_1031158_u69w8yhxdu.woff?t=1630033759944") format("woff"), url("//at.alicdn.com/t/font_1031158_u69w8yhxdu.ttf?t=1630033759944") format("truetype"); }
</style></defs><path d="M286.130424 624.263758a183.018 196.52 0 1 0 473.258667 0 183.018 196.52 0 1 0-473.258667 0Z" p-id="68281" fill="#820182"></path><path d="M514.015677 257.64202c-198.524121 0-359.460202 160.934788-359.460202 359.464081 0 198.520242 160.934788 359.460202 359.460202 359.460202 198.525414 0 359.464081-160.93996 359.464081-359.460202C873.479758 418.576808 712.539798 257.64202 514.015677 257.64202L514.015677 257.64202zM698.84897 585.045333l-70.878384 69.086384 16.731798 97.550222c5.621657 32.747313-13.085737 47.070384-43.080404 31.303111l-87.606303-46.060606-87.606303 46.060606c-29.40897 15.459556-48.808081 2.095838-43.076525-31.303111l16.727919-97.550222-70.874505-69.086384c-23.792485-23.192566-17.075717-45.772283 16.455111-50.641455l97.944566-14.237737 43.808323-88.753131c14.701899-29.798141 38.252606-30.383838 53.248 0l43.808323 88.753131 97.944566 14.237737C715.273051 539.177374 723.110788 561.393778 698.84897 585.045333L698.84897 585.045333zM698.84897 585.045333" p-id="68282" fill="#820182"></path><path d="M850.045414 50.424242 627.788283 50.424242c-11.989333 0-21.606141 8.400162-24.429899 19.515475l-68.514909 135.091717c0 0 146.702222 8.828121 233.358222 92.272485l102.328889-206.500202c3.035798-4.212364 5.192404-9.111273 5.192404-14.701899C875.721697 61.919677 864.227556 50.424242 850.045414 50.424242L850.045414 50.424242zM850.045414 50.424242" p-id="68283" fill="#820182"></path><path d="M489.565091 205.031434 421.050182 69.939717C418.227717 58.824404 408.610909 50.424242 396.621576 50.424242L174.363152 50.424242C160.182303 50.424242 148.686869 61.919677 148.686869 76.101818c0 5.590626 2.161778 10.489535 5.192404 14.707071l102.332768 206.49503C342.864162 213.859556 489.565091 205.031434 489.565091 205.031434L489.565091 205.031434zM489.565091 205.031434" p-id="68284" fill="#820182"></path></svg>