<svg width="26" height="26" viewBox="0 0 26 26" fill="none" xmlns="http://www.w3.org/2000/svg">
<path d="M1.33337 7.00004C0.781089 7.00004 0.333374 7.44776 0.333374 8.00004C0.333374 8.55233 0.781089 9.00004 1.33337 9.00004V7.00004ZM6.33337 9.00004C6.88566 9.00004 7.33337 8.55233 7.33337 8.00004C7.33337 7.44776 6.88566 7.00004 6.33337 7.00004V9.00004ZM9.66671 7.00004C9.11442 7.00004 8.66671 7.44776 8.66671 8.00004C8.66671 8.55233 9.11442 9.00004 9.66671 9.00004V7.00004ZM19.6667 9.00004C20.219 9.00004 20.6667 8.55233 20.6667 8.00004C20.6667 7.44776 20.219 7.00004 19.6667 7.00004V9.00004ZM13 12C12.4478 12 12 12.4478 12 13C12 13.5523 12.4478 14 13 14V12ZM19.6667 14C20.219 14 20.6667 13.5523 20.6667 13C20.6667 12.4478 20.219 12 19.6667 12V14ZM16.3334 17C15.7811 17 15.3334 17.4478 15.3334 18C15.3334 18.5523 15.7811 19 16.3334 19V17ZM19.6667 19C20.219 19 20.6667 18.5523 20.6667 18C20.6667 17.4478 20.219 17 19.6667 17V19ZM1.33337 12C0.781089 12 0.333374 12.4478 0.333374 13C0.333374 13.5523 0.781089 14 1.33337 14V12ZM6.33337 14C6.88566 14 7.33337 13.5523 7.33337 13C7.33337 12.4478 6.88566 12 6.33337 12V14ZM1.33337 17C0.781089 17 0.333374 17.4478 0.333374 18C0.333374 18.5523 0.781089 19 1.33337 19V17ZM6.33337 19C6.88566 19 7.33337 18.5523 7.33337 18C7.33337 17.4478 6.88566 17 6.33337 17V19ZM1.33337 9.00004H6.33337V7.00004H1.33337V9.00004ZM9.66671 9.00004H19.6667V7.00004H9.66671V9.00004ZM13 14H19.6667V12H13V14ZM16.3334 19H19.6667V17H16.3334V19ZM1.33337 14H6.33337V12H1.33337V14ZM1.33337 19H6.33337V17H1.33337V19ZM5.66671 21.3334V4.66671H3.66671V21.3334H5.66671ZM5.66671 4.66671C5.66671 3.37804 6.71138 2.33337 8.00004 2.33337V0.333374C5.60681 0.333374 3.66671 2.27347 3.66671 4.66671H5.66671ZM8.00004 2.33337H21.3334V0.333374H8.00004V2.33337ZM21.3334 2.33337C22.622 2.33337 23.6667 3.37804 23.6667 4.66671H25.6667C25.6667 2.27347 23.7266 0.333374 21.3334 0.333374V2.33337ZM23.6667 4.66671V21.3334H25.6667V4.66671H23.6667ZM23.6667 21.3334C23.6667 22.622 22.622 23.6667 21.3334 23.6667V25.6667C23.7266 25.6667 25.6667 23.7266 25.6667 21.3334H23.6667ZM21.3334 23.6667H8.00004V25.6667H21.3334V23.6667ZM8.00004 23.6667C6.71138 23.6667 5.66671 22.622 5.66671 21.3334H3.66671C3.66671 23.7266 5.60681 25.6667 8.00004 25.6667V23.6667Z" fill="#666666"/>
</svg>
