<svg width="18" height="20" viewBox="0 0 18 20" fill="none" xmlns="http://www.w3.org/2000/svg">
<path opacity="0.8" fill-rule="evenodd" clip-rule="evenodd" d="M8.9759 0C10.4332 0 11.6322 1.10509 11.7809 2.52296L11.7908 2.64846L11.8714 2.68402C14.2276 3.76855 15.8138 6.10599 15.8957 8.75861L15.899 8.97436V12.2138C15.899 12.5189 16.005 12.813 16.1967 13.0469L16.284 13.1434L17.725 14.5843C18.1885 15.0478 17.8946 15.826 17.2684 15.8928L17.181 15.8974L12.8215 15.8969L12.8221 16.1538C12.8221 18.2781 11.1001 20 8.9759 20C6.90758 20 5.22065 18.3675 5.1333 16.3207L5.12975 16.1538L5.12923 15.8969L0.770773 15.8974C0.115254 15.8974 -0.227255 15.1393 0.168297 14.6493L0.22685 14.5843L1.66781 13.1433C1.88351 12.9277 2.01651 12.6447 2.04639 12.3438L2.05282 12.2138V8.97436C2.05282 6.23326 3.66055 3.79787 6.08037 2.68402L6.16077 2.64769L6.1709 2.52296C6.31443 1.15399 7.43721 0.0765853 8.82611 0.00390959L8.9759 0ZM11.2831 15.897H6.66768L6.6682 16.1539C6.6682 17.4285 7.70134 18.4616 8.97589 18.4616C10.2049 18.4616 11.2095 17.501 11.2797 16.2895L11.2836 16.1539L11.2831 15.897ZM15.1961 14.2312L15.3238 14.3585H2.62767L2.75562 14.2312L2.8749 14.1045C3.33512 13.5844 3.59126 12.9123 3.59126 12.2139V8.97439L3.59524 8.76605C3.68012 6.55247 5.11184 4.6273 7.18093 3.89598C7.48831 3.78734 7.69382 3.49673 7.69382 3.17072V2.82054L7.69852 2.70992C7.75461 2.05364 8.30506 1.53849 8.97587 1.53849C9.68395 1.53849 10.2579 2.11247 10.2579 2.82054V3.17072L10.264 3.26731C10.3 3.55303 10.4942 3.7982 10.7708 3.89598C12.9046 4.65015 14.3605 6.67395 14.3605 8.97439V12.2139L14.3658 12.3879C14.4081 13.081 14.7023 13.7374 15.1961 14.2312Z" fill="white"/>
</svg>
