<svg width="19" height="19" viewBox="0 0 19 19" fill="none" xmlns="http://www.w3.org/2000/svg">
<path d="M9.65503 18.8672C14.5751 18.8672 18.6504 14.7898 18.6504 9.86719C18.6504 4.94459 14.5658 0.867188 9.64575 0.867188C4.72569 0.867188 0.650391 4.94459 0.650391 9.86719C0.650391 14.7898 4.73497 18.8672 9.65503 18.8672ZM6.5916 13.7031C6.16457 13.7031 5.83038 13.3594 5.83038 12.9229C5.83038 12.7279 5.90465 12.5328 6.05318 12.3935L8.56891 9.87648L6.05318 7.35945C5.90465 7.22013 5.83038 7.03437 5.83038 6.83004C5.83038 6.40279 6.16457 6.07771 6.5916 6.07771C6.80511 6.07771 6.98149 6.14273 7.12074 6.29134L9.64575 8.80836L12.18 6.28205C12.3379 6.12415 12.5142 6.05914 12.7185 6.05914C13.1362 6.05914 13.4797 6.3935 13.4797 6.81146C13.4797 7.02508 13.4054 7.19227 13.2569 7.35945L10.7319 9.87648L13.2476 12.3842C13.3869 12.5328 13.4704 12.7186 13.4704 12.9229C13.4704 13.3594 13.1269 13.7031 12.6999 13.7031C12.4864 13.7031 12.3007 13.6102 12.1522 13.4709L9.64575 10.9539L7.14859 13.4709C7.00006 13.6195 6.80511 13.7031 6.5916 13.7031Z" fill="#CE344F"/>
</svg>
