<svg width="18" height="18" viewBox="0 0 18 18" fill="none" xmlns="http://www.w3.org/2000/svg">
<path d="M9.00464 18C13.9247 18 18 13.9226 18 9C18 4.0774 13.9154 0 8.99536 0C4.0753 0 0 4.0774 0 9C0 13.9226 4.08458 18 9.00464 18ZM8.01135 13.3096C7.69572 13.3096 7.44508 13.1796 7.213 12.8731L5.02218 10.1981C4.88293 10.0124 4.80866 9.80805 4.80866 9.60371C4.80866 9.18576 5.12429 8.85139 5.55132 8.85139C5.80196 8.85139 6.00619 8.93498 6.22898 9.22291L7.97421 11.4706L11.6875 5.52632C11.8546 5.23839 12.0959 5.09907 12.3466 5.09907C12.7457 5.09907 13.1171 5.37771 13.1171 5.80495C13.1171 6 13.015 6.21362 12.8943 6.39938L8.77256 12.8638C8.5869 13.161 8.32697 13.3096 8.01135 13.3096Z" fill="#36B37E"/>
</svg>
