<svg width="18" height="18" viewBox="0 0 18 18" fill="none" xmlns="http://www.w3.org/2000/svg">
<path d="M9.00464 18C13.9247 18 18 13.9226 18 9C18 4.0774 13.9154 0 8.99536 0C4.0753 0 0 4.0774 0 9C0 13.9226 4.08458 18 9.00464 18ZM8.99536 10.5975C8.52192 10.5975 8.25271 10.3282 8.24342 9.83591L8.12274 5.18266C8.10418 4.69969 8.46622 4.34675 8.98608 4.34675C9.49665 4.34675 9.87726 4.69969 9.85869 5.19195L9.72873 9.83591C9.71944 10.3375 9.45023 10.5975 8.99536 10.5975ZM8.99536 13.5697C8.44765 13.5697 7.97421 13.1424 7.97421 12.6037C7.97421 12.065 8.43837 11.6378 8.99536 11.6378C9.55235 11.6378 10.0072 12.0557 10.0072 12.6037C10.0072 13.1517 9.54306 13.5697 8.99536 13.5697Z" fill="#FA8C16"/>
</svg>
