<svg width="72" height="68" viewBox="0 0 72 68" fill="none" xmlns="http://www.w3.org/2000/svg">
<path d="M35.6666 66.6665C53.892 66.6665 68.6666 51.8919 68.6666 33.6665C68.6666 15.4411 53.892 0.666504 35.6666 0.666504C17.4412 0.666504 2.66663 15.4411 2.66663 33.6665C2.66663 51.8919 17.4412 66.6665 35.6666 66.6665Z" fill="#E7EFFF"/>
<path d="M56 28.6667H49.3334V26H56C56.7334 26 57.3334 26.6 57.3334 27.3333C57.3334 27.8667 56.9334 28.6667 56 28.6667Z" fill="#A5BCED"/>
<path d="M56 48.6665H49.3334V51.3332H56C56.7334 51.3332 57.3334 50.7332 57.3334 49.9998C57.3334 49.4665 56.9334 48.6665 56 48.6665Z" fill="#A5BCED"/>
<path d="M66 38.6664C66 41.3331 62.4 42.3998 61.0666 39.9998H52C51.2666 39.9998 50.6666 39.3998 50.6666 38.6664C50.6666 37.9331 51.2666 37.3331 52 37.3331H61.0666C62.4 34.9331 66 35.9998 66 38.6664Z" fill="#A5BCED"/>
<path d="M72 24.6664C72 27.3331 68.4 28.3998 67.0666 25.9998H62.6666C62.2666 25.9998 62 26.2664 62 26.6664V29.9998C62 31.8664 60.5333 33.3331 58.6666 33.3331H52C51.2666 33.3331 50.6666 32.7331 50.6666 31.9998C50.6666 31.2664 51.2666 30.6664 52 30.6664H58.6666C59.0666 30.6664 59.3333 30.3998 59.3333 29.9998V26.6664C59.3333 24.7998 60.8 23.3331 62.6666 23.3331H67.0666C68.4 20.9331 72 21.9998 72 24.6664Z" fill="#A5BCED"/>
<path d="M72 52.6667C72 50 68.4 48.9333 67.0666 51.3333H62.6666C62.2666 51.3333 62 51.0667 62 50.6667V47.3333C62 45.4667 60.5333 44 58.6666 44H52C51.2666 44 50.6666 44.6 50.6666 45.3333C50.6666 46.0667 51.2666 46.6667 52 46.6667H58.6666C59.0666 46.6667 59.3333 46.9333 59.3333 47.3333V50.6667C59.3333 52.5333 60.8 54 62.6666 54H67.0666C68.4 56.4 72 55.3333 72 52.6667Z" fill="#A5BCED"/>
<path d="M16 28.6667H22.6666V26H16C15.2666 26 14.6666 26.6 14.6666 27.3333C14.6666 27.8667 15.0666 28.6667 16 28.6667Z" fill="#A5BCED"/>
<path d="M16 48.6665H22.6666V51.3332H16C15.2666 51.3332 14.6666 50.7332 14.6666 49.9998C14.6666 49.4665 15.0666 48.6665 16 48.6665Z" fill="#A5BCED"/>
<path d="M6 38.6664C6 41.3331 9.6 42.3998 10.9333 39.9998H20C20.7333 39.9998 21.3333 39.3998 21.3333 38.6664C21.3333 37.9331 20.7333 37.3331 20 37.3331H10.9333C9.6 34.9331 6 35.9998 6 38.6664Z" fill="#A5BCED"/>
<path d="M0 24.6664C0 27.3331 3.6 28.3998 4.93333 25.9998H9.33333C9.73333 25.9998 10 26.2664 10 26.6664V29.9998C10 31.8664 11.4667 33.3331 13.3333 33.3331H20C20.7333 33.3331 21.3333 32.7331 21.3333 31.9998C21.3333 31.2664 20.7333 30.6664 20 30.6664H13.3333C12.9333 30.6664 12.6667 30.3998 12.6667 29.9998V26.6664C12.6667 24.7998 11.2 23.3331 9.33333 23.3331H4.93333C3.6 20.9331 0 21.9998 0 24.6664Z" fill="#A5BCED"/>
<path d="M0 52.6667C0 50 3.6 48.9333 4.93333 51.3333H9.33333C9.73333 51.3333 10 51.0667 10 50.6667V47.3333C10 45.4667 11.4667 44 13.3333 44H20C20.7333 44 21.3333 44.6 21.3333 45.3333C21.3333 46.0667 20.7333 46.6667 20 46.6667H13.3333C12.9333 46.6667 12.6667 46.9333 12.6667 47.3333V50.6667C12.6667 52.5333 11.2 54 9.33333 54H4.93333C3.6 56.4 0 55.3333 0 52.6667Z" fill="#A5BCED"/>
<path d="M56 16.6665V60.6665C54.7333 61.5998 53.4 62.4665 52 63.2665C52 63.2665 44.6667 61.9998 36 61.9998C27.3333 61.9998 20 63.2665 20 63.2665C18.6 62.5332 17.2667 61.6665 16 60.6665V16.6665C16 12.2665 19.6 8.6665 24 8.6665H48C52.4 8.6665 56 12.2665 56 16.6665Z" fill="#4E6AFF"/>
<path d="M52 16.6665V63.2665C42.0667 68.7332 29.9333 68.7332 20 63.2665V16.6665C20 14.4665 21.8 12.6665 24 12.6665H48C50.2 12.6665 52 14.4665 52 16.6665Z" fill="white"/>
<path d="M46 32.6665V44.6665C46 44.9331 45.8667 45.1331 45.6667 45.2665C35.4667 50.3331 36.2 49.9998 36 49.9998C35.8 49.9998 36.4667 50.3331 26.3333 45.2665C26.1333 45.1331 26 44.9331 26 44.6665V32.6665C26 32.3998 26.1333 32.1998 26.3333 32.0665L35.6667 27.3998C35.8667 27.2665 36.0667 27.2665 36.2667 27.3998L45.6 32.0665C45.8667 32.1998 46 32.3998 46 32.6665Z" fill="#FFA100"/>
<path d="M41.3333 17.3333H30.6667C29.2 17.3333 28 16.1333 28 14.6667V12H44V14.6667C44 16.1333 42.8 17.3333 41.3333 17.3333Z" fill="#4E6AFF"/>
<path d="M36 15.3332H32C31.2666 15.3332 30.6666 14.7332 30.6666 13.9998C30.6666 13.4665 31.0666 12.6665 32 12.6665H36C36.7333 12.6665 37.3333 13.2665 37.3333 13.9998C37.3333 14.5332 36.9333 15.3332 36 15.3332Z" fill="#323FD4"/>
<path d="M40.6667 15.3332C41.4031 15.3332 42 14.7362 42 13.9998C42 13.2635 41.4031 12.6665 40.6667 12.6665C39.9303 12.6665 39.3334 13.2635 39.3334 13.9998C39.3334 14.7362 39.9303 15.3332 40.6667 15.3332Z" fill="#323FD4"/>
<path d="M41.3333 61.9998H30.6667C29.2 61.9998 28 60.7998 28 59.3332C28 57.8665 29.2 56.6665 30.6667 56.6665H41.3333C42.8 56.6665 44 57.8665 44 59.3332C44 60.7998 42.8 61.9998 41.3333 61.9998Z" fill="#8FA2FF"/>
</svg>
