<svg width="70" height="70" viewBox="0 0 70 70" fill="none" xmlns="http://www.w3.org/2000/svg">
<path d="M35 68C53.2254 68 68 53.2254 68 35C68 16.7746 53.2254 2 35 2C16.7746 2 2 16.7746 2 35C2 53.2254 16.7746 68 35 68Z" fill="#E7EFFF"/>
<path d="M16.0667 54.2666C15.7334 54.1333 16.3334 55.1999 7.06672 35.2666C7.00006 35.0666 7.00006 34.8666 7.06672 34.7333L15.7334 16.0666C15.8667 15.7333 14.8001 16.3333 34.7334 7.0666C34.9334 6.99993 35.1334 6.99993 35.2667 7.0666L53.9334 15.7333C54.2667 15.8666 53.6667 14.7999 62.9334 34.7333C63.0001 34.9333 63.0001 35.1333 62.9334 35.2666L54.2667 53.9333C54.1334 54.2666 55.2001 53.6666 35.2667 62.9333C34.8667 63.1333 35.8667 63.4666 16.0667 54.2666ZM16.8667 53.1333L35.0001 61.5999L53.1334 53.1333L61.6001 34.9999L53.1334 16.8666L35.0001 8.39994L16.8667 16.8666L8.40006 34.9999L16.8667 53.1333Z" fill="#A5BCED"/>
<path d="M42.3333 4.3334V12.3334C42.3333 12.6001 42.2 12.8001 42 12.9334C34.6667 16.6001 35.2 16.3334 35 16.3334V6.93339L41.3333 3.7334C41.8 3.5334 42.3333 3.80006 42.3333 4.3334Z" fill="#323FD4"/>
<path d="M35.0001 6.9334V16.3334C34.8001 16.3334 35.2667 16.5334 28.0001 12.9334C27.8001 12.8001 27.6667 12.6001 27.6667 12.3334V4.3334C27.6667 3.80006 28.2001 3.5334 28.6667 3.7334L35.0001 6.9334Z" fill="#4E6AFF"/>
<path d="M35 51C43.8366 51 51 43.8366 51 35C51 26.1634 43.8366 19 35 19C26.1634 19 19 26.1634 19 35C19 43.8366 26.1634 51 35 51Z" fill="#FFA100"/>
<path d="M35 47.6668C41.9956 47.6668 47.6667 41.9958 47.6667 35.0002C47.6667 28.0046 41.9956 22.3335 35 22.3335C28.0044 22.3335 22.3334 28.0046 22.3334 35.0002C22.3334 41.9958 28.0044 47.6668 35 47.6668Z" fill="#323FD4"/>
<path d="M42 4.93343L35.3333 8.26676C35.1333 8.33343 34.9333 8.33343 34.7333 8.26676L28.0667 4.93343C27.6 4.73343 27.6 4.0001 28.0667 3.73343L34.7333 0.400098C34.9333 0.333431 35.1333 0.333431 35.3333 0.400098L42 3.73343C42.4667 4.0001 42.4667 4.66676 42 4.93343Z" fill="#8FA2FF"/>
<path d="M42.3333 57.6669V65.6669C42.3333 65.9336 42.2 66.1336 42 66.2669C34.6667 69.9336 35.2 69.6669 35 69.6669V60.2669L41.3333 57.0669C41.8 56.8669 42.3333 57.1336 42.3333 57.6669Z" fill="#323FD4"/>
<path d="M35.0001 60.2669V69.6669C34.8001 69.6669 35.2667 69.8669 28.0001 66.2669C27.8001 66.1336 27.6667 65.9336 27.6667 65.6669V57.6669C27.6667 57.1336 28.2001 56.8669 28.6667 57.0669L35.0001 60.2669Z" fill="#4E6AFF"/>
<path d="M42 58.2669L35.3333 61.6003C35.1333 61.6669 34.9333 61.6669 34.7333 61.6003L28.0667 58.2669C27.6 58.0669 27.6 57.3336 28.0667 57.0669L34.7333 53.7336C34.9333 53.6669 35.1333 53.6669 35.3333 53.7336L42 57.0669C42.4667 57.3336 42.4667 58.0003 42 58.2669Z" fill="#8FA2FF"/>
<path d="M15.0001 30.9999V38.9999C15.0001 39.2666 14.8667 39.4666 14.6667 39.5999C7.33341 43.2666 7.86675 42.9999 7.66675 42.9999V33.5999L14.0001 30.3999C14.4667 30.1999 15.0001 30.4666 15.0001 30.9999Z" fill="#323FD4"/>
<path d="M7.66671 33.5999V42.9999C7.46671 42.9999 7.93337 43.1999 0.666707 39.5999C0.466707 39.4666 0.333374 39.2666 0.333374 38.9999V30.9999C0.333374 30.4666 0.866707 30.1999 1.33337 30.3999L7.66671 33.5999Z" fill="#4E6AFF"/>
<path d="M14.6668 31.5999L8.00009 34.9333C7.80009 34.9999 7.60009 34.9999 7.40009 34.9333L0.733423 31.5999C0.266756 31.3999 0.266756 30.6666 0.733423 30.3999L7.40009 27.0666C7.60009 26.9999 7.80009 26.9999 8.00009 27.0666L14.6668 30.3999C15.1334 30.6666 15.1334 31.3333 14.6668 31.5999Z" fill="#8FA2FF"/>
<path d="M69.6667 30.9999V38.9999C69.6667 39.2666 69.5334 39.4666 69.3334 39.5999C62 43.2666 62.5334 42.9999 62.3334 42.9999V33.5999L68.6667 30.3999C69.1334 30.1999 69.6667 30.4666 69.6667 30.9999Z" fill="#323FD4"/>
<path d="M62.3333 33.5999V42.9999C62.1333 42.9999 62.6 43.1999 55.3333 39.5999C55.1333 39.4666 55 39.2666 55 38.9999V30.9999C55 30.4666 55.5333 30.1999 56 30.3999L62.3333 33.5999Z" fill="#4E6AFF"/>
<path d="M69.3334 31.5999L62.6667 34.9333C62.4667 34.9999 62.2667 34.9999 62.0667 34.9333L55.4 31.5999C54.9334 31.3999 54.9334 30.6666 55.4 30.3999L62.0667 27.0666C62.2667 26.9999 62.4667 26.9999 62.6667 27.0666L69.3334 30.3999C69.8 30.6666 69.8 31.3333 69.3334 31.5999Z" fill="#8FA2FF"/>
<path d="M16.3333 19.6667C18.1743 19.6667 19.6667 18.1743 19.6667 16.3333C19.6667 14.4924 18.1743 13 16.3333 13C14.4924 13 13 14.4924 13 16.3333C13 18.1743 14.4924 19.6667 16.3333 19.6667Z" fill="#4E6AFF"/>
<path d="M16.3333 57.0002C18.1743 57.0002 19.6667 55.5078 19.6667 53.6668C19.6667 51.8259 18.1743 50.3335 16.3333 50.3335C14.4924 50.3335 13 51.8259 13 53.6668C13 55.5078 14.4924 57.0002 16.3333 57.0002Z" fill="#4E6AFF"/>
<path d="M53.6667 19.6667C55.5077 19.6667 57 18.1743 57 16.3333C57 14.4924 55.5077 13 53.6667 13C51.8258 13 50.3334 14.4924 50.3334 16.3333C50.3334 18.1743 51.8258 19.6667 53.6667 19.6667Z" fill="#4E6AFF"/>
<path d="M53.6667 57.0002C55.5077 57.0002 57 55.5078 57 53.6668C57 51.8259 55.5077 50.3335 53.6667 50.3335C51.8258 50.3335 50.3334 51.8259 50.3334 53.6668C50.3334 55.5078 51.8258 57.0002 53.6667 57.0002Z" fill="#4E6AFF"/>
<path d="M43.6667 30.3336V39.6669C43.6667 39.9336 43.5334 40.1336 43.3334 40.2669C34.5334 44.6003 35.2 44.3336 35 44.3336C34.8 44.3336 35.4 44.6003 26.6667 40.2669C26.4667 40.1336 26.3334 39.9336 26.3334 39.6669V30.3336C26.3334 30.0669 26.4667 29.8669 26.6667 29.7336L34.6667 25.7336C34.8667 25.6669 35.0667 25.6669 35.2667 25.7336L43.2667 29.7336C43.5334 29.8669 43.6667 30.0669 43.6667 30.3336Z" fill="#4E6AFF"/>
</svg>
