<svg width="66" height="66" viewBox="0 0 66 66" fill="none" xmlns="http://www.w3.org/2000/svg">
<path d="M33 66C51.2254 66 66 51.2254 66 33C66 14.7746 51.2254 0 33 0C14.7746 0 0 14.7746 0 33C0 51.2254 14.7746 66 33 66Z" fill="#E7EFFF"/>
<path d="M46.2086 11.218V27.4258C46.2086 27.6751 46.0839 27.9245 45.8346 27.9868C31.8709 33.9712 32.6813 33.6595 32.4943 33.6595C32.3073 33.6595 33.18 34.0336 19.1541 27.9868C18.9047 27.9245 18.78 27.6751 18.78 27.4258V11.218C18.78 10.7816 19.2787 10.4699 19.6528 10.6569L32.4943 16.1426L45.3359 10.6569C45.7722 10.4699 46.2086 10.7816 46.2086 11.218Z" fill="#C7D0FF"/>
<path d="M46.2085 11.218V27.4258C46.2085 27.6751 46.0839 27.9245 45.8345 27.9868C31.8709 33.9712 32.6813 33.6595 32.4943 33.6595V16.1426L45.3358 10.6569C45.7722 10.4699 46.2085 10.7816 46.2085 11.218Z" fill="#323FD4"/>
<path d="M32.4943 16.1426V33.6595C32.3073 33.6595 33.18 34.0336 19.1541 27.9868C18.9047 27.9245 18.78 27.6751 18.78 27.4258V11.218C18.78 10.7816 19.2787 10.4699 19.6528 10.6569L32.4943 16.1426Z" fill="#C7D0FF"/>
<path d="M45.8346 11.7792L32.7437 17.3896C32.5567 17.4519 32.432 17.4519 32.245 17.3896L19.1541 11.7792C18.6554 11.5299 18.6554 10.8442 19.1541 10.6571L32.245 5.04675C32.3696 4.98442 32.5567 4.98442 32.7437 5.04675L45.8346 10.6571C46.3333 10.8442 46.3333 11.5922 45.8346 11.7792Z" fill="#8FA2FF"/>
<path d="M32.4943 32.4128V48.6206C32.4943 48.8699 32.3696 49.1193 32.1203 49.1816C18.1567 55.166 18.967 54.8544 18.78 54.8544V37.3375L31.6216 31.8518C32.058 31.6647 32.4943 31.9764 32.4943 32.4128Z" fill="#323FD4"/>
<path d="M18.78 37.3375V54.8544C18.593 54.8544 16.8644 54.2387 5.02027 49.127C5.02027 46.627 4.97471 46.3113 5.0202 45.127L5.02026 32.627C5.02026 32.1906 5.56441 31.6648 5.93844 31.8518L18.78 37.3375Z" fill="#C7D0FF"/>
<path d="M32.1202 32.9736L19.0293 38.5839C18.8423 38.6463 18.7176 38.6463 18.5306 38.5839L5.4397 32.9736C4.941 32.7242 4.941 32.0385 5.4397 31.8515L18.5306 26.2411C18.6553 26.1788 18.8423 26.1788 19.0293 26.2411L32.1202 31.8515C32.6189 32.0385 32.6189 32.7865 32.1202 32.9736Z" fill="#8FA2FF"/>
<path d="M59.9229 32.4128V48.6206C59.9229 48.8699 59.7982 49.1193 59.5489 49.1816C45.5852 55.166 46.3956 54.8544 46.2086 54.8544V37.3375L59.0502 31.8518C59.4865 31.6647 59.9229 31.9764 59.9229 32.4128Z" fill="#323FD4"/>
<path d="M46.2085 37.3375V54.8544C46.0215 54.8544 46.8943 55.2284 32.8683 49.1816C32.6189 49.1193 32.4943 48.8699 32.4943 48.6206V32.4128C32.4943 31.9764 32.993 31.6647 33.367 31.8518L46.2085 37.3375Z" fill="#C7D0FF"/>
<path d="M59.5488 32.9736L46.4579 38.5839C46.2709 38.6463 46.1462 38.6463 45.9592 38.5839L32.8683 32.9736C32.3696 32.7242 32.3696 32.0385 32.8683 31.8515L45.9592 26.2411C46.0839 26.1788 46.2709 26.1788 46.4579 26.2411L59.5488 31.8515C60.0475 32.0385 60.0475 32.7865 59.5488 32.9736Z" fill="#8FA2FF"/>
<path d="M51.1956 24.9324H50.5722V11.8415H51.1956C51.5696 11.8415 51.819 11.5921 51.819 11.2181C51.819 10.8441 51.5696 10.5947 51.1956 10.5947H48.7021C48.3281 10.5947 48.0787 10.8441 48.0787 11.2181C48.0787 11.5921 48.3281 11.8415 48.7021 11.8415H49.3255V24.9324H48.7021C48.3281 24.9324 48.0787 25.1817 48.0787 25.5558C48.0787 25.9298 48.3281 26.1791 48.7021 26.1791H51.1956C51.5696 26.1791 51.819 25.9298 51.819 25.5558C51.819 25.1817 51.5696 24.9324 51.1956 24.9324Z" fill="#A5BCED"/>
<path d="M18.78 58.5947C18.5929 58.5947 18.78 58.6571 14.7903 56.6623C14.4787 56.5376 14.354 56.1636 14.541 55.8519C14.6657 55.5402 15.0397 55.4155 15.3514 55.6025L18.8423 57.348L22.3332 55.6025C22.6449 55.4778 23.0189 55.6025 23.1436 55.8519C23.2683 56.1636 23.1436 56.5376 22.8942 56.6623C18.7176 58.6571 18.967 58.5947 18.78 58.5947Z" fill="#A5BCED"/>
<path d="M13.793 26.8024C13.1073 26.8024 12.9203 25.9297 13.5436 25.618L15.6631 24.5583V22.4388C15.6631 22.0648 15.9125 21.8154 16.2865 21.8154C16.6605 21.8154 16.9099 22.0648 16.9099 22.4388V24.9323C16.9099 25.1817 16.7852 25.3687 16.5358 25.4934C13.8553 26.8648 13.98 26.8024 13.793 26.8024Z" fill="#A5BCED"/>
</svg>
