<svg width="96" height="96" viewBox="0 0 96 96" fill="none" xmlns="http://www.w3.org/2000/svg">
<path d="M48 80C66.2254 80 81 65.2254 81 47C81 28.7746 66.2254 14 48 14C29.7746 14 15 28.7746 15 47C15 65.2254 29.7746 80 48 80Z" fill="#E7EFFF"/>
<path d="M34.3333 74.84C34.3333 76.292 34.4 76.49 34.0666 76.952C30.1333 75.104 26.6666 72.53 23.7333 69.362L23 64.28C22.2666 64.28 21.6666 63.686 21.6666 62.96V59H31.6666V73.52H33C33.7333 73.52 34.3333 74.114 34.3333 74.84Z" fill="#323FD4"/>
<path d="M31.6666 65V73.58H28.3333C27.6666 73.052 26.9999 72.524 26.3333 71.93V66.32C26.3333 65.594 26.9333 65 27.6666 65H31.6666Z" fill="#4E6AFF"/>
<path d="M34.3333 65.82H31.6666V60.54H37V63.18C37 64.632 35.8 65.82 34.3333 65.82Z" fill="#8FA2FF"/>
<path d="M68.3333 57.24C72.0152 57.24 75 54.2851 75 50.64C75 46.995 72.0152 44.04 68.3333 44.04C64.6514 44.04 61.6666 46.995 61.6666 50.64C61.6666 54.2851 64.6514 57.24 68.3333 57.24Z" fill="#323FD4"/>
<path d="M25.6666 50.64C25.6666 55.524 20.4666 58.692 16.1333 56.58C15.1333 52.95 14.8 49.122 15.1333 45.228C19.4666 42.192 25.6666 45.228 25.6666 50.64Z" fill="#323FD4"/>
<path d="M27.6666 40.7398H22.3333V38.0998C22.3333 37.3738 22.9333 36.7798 23.6666 36.7798H26.3333C27.0666 36.7798 27.6666 37.3738 27.6666 38.0998V40.7398Z" fill="#323FD4"/>
<path d="M64.3333 33.48C64.3333 69.384 64.2666 67.734 64.3333 67.8C57.3333 63.048 49.1999 60.144 40.7999 59.418L38.3333 59.22V42.06L40.7999 41.862C49.1999 41.136 57.3333 38.232 64.3333 33.48Z" fill="#8FA2FF"/>
<path d="M23 61.8599H37C38.1333 61.8599 39 61.0019 39 59.8799V41.3999C39 40.2779 38.1333 39.4199 37 39.4199H23C20.8 39.4199 19 41.2019 19 43.3799V57.8999C19 60.0779 20.8 61.8599 23 61.8599Z" fill="#4E6AFF"/>
<path d="M65.6667 72.4199C64.2 72.4199 63 71.2319 63 69.7799V31.4999C63 30.0479 64.2 28.8599 65.6667 28.8599C67.1333 28.8599 68.3333 30.0479 68.3333 31.4999V69.7799C68.3333 71.2319 67.1333 72.4199 65.6667 72.4199Z" fill="#4E6AFF"/>
<path d="M23.6666 49.3202C23.1333 49.3202 22.3333 48.9242 22.3333 48.0002V44.0402C22.3333 43.3142 22.9333 42.7202 23.6666 42.7202C24.1999 42.7202 24.9999 43.1162 24.9999 44.0402V48.0002C24.9999 48.7262 24.3999 49.3202 23.6666 49.3202Z" fill="#323FD4"/>
<path d="M29 49.3202C28.4666 49.3202 27.6666 48.9242 27.6666 48.0002V44.0402C27.6666 43.3142 28.2666 42.7202 29 42.7202C29.5333 42.7202 30.3333 43.1162 30.3333 44.0402V48.0002C30.3333 48.7262 29.7333 49.3202 29 49.3202Z" fill="#323FD4"/>
<path d="M34.3333 49.3202C33.8 49.3202 33 48.9242 33 48.0002V44.0402C33 43.3142 33.6 42.7202 34.3333 42.7202C34.8667 42.7202 35.6667 43.1162 35.6667 44.0402V48.0002C35.6667 48.7262 35.0667 49.3202 34.3333 49.3202Z" fill="#323FD4"/>
<path d="M34.9999 55.2599H22.9999C22.5999 55.2599 22.3333 54.9959 22.3333 54.5999C22.3333 54.4019 22.4666 53.9399 22.9999 53.9399H34.9999C35.3999 53.9399 35.6666 54.2039 35.6666 54.5999C35.6666 54.7979 35.5333 55.2599 34.9999 55.2599Z" fill="white"/>
<path d="M24.9999 56.5801C24.7999 56.5801 24.3333 56.4481 24.3333 55.9201V53.2801C24.3333 52.8841 24.5999 52.6201 24.9999 52.6201C25.1999 52.6201 25.6666 52.7521 25.6666 53.2801V55.9201C25.6666 56.3161 25.3999 56.5801 24.9999 56.5801Z" fill="#323FD4"/>
<path d="M85.6666 51.9598H79.6666C78.9333 51.9598 78.3333 51.3658 78.3333 50.6398C78.3333 49.9138 78.9333 49.3198 79.6666 49.3198H85.6666C86.3999 49.3198 86.9999 49.9138 86.9999 50.6398C86.9999 51.3658 86.3999 51.9598 85.6666 51.9598Z" fill="#FFA100"/>
<path d="M79.6666 44.0399C78.4666 44.0399 77.8666 42.5219 78.7999 41.7299L83.4666 37.7699C83.9999 37.3079 84.8666 37.3739 85.3333 37.9019C85.7999 38.4299 85.7333 39.2879 85.1999 39.7499L80.5333 43.7099C80.2666 43.9079 79.9999 44.0399 79.6666 44.0399Z" fill="#FFA100"/>
<path d="M84.3332 63.8402C83.9999 63.8402 83.7332 63.7082 83.4666 63.5102L78.7999 59.5502C78.2666 59.0882 78.1999 58.2302 78.6666 57.7022C79.1332 57.1742 79.9999 57.1082 80.5332 57.5702L85.1999 61.5302C86.1332 62.3222 85.5332 63.8402 84.3332 63.8402Z" fill="#FFA100"/>
<path d="M53 34.1398C57.4183 34.1398 61 30.5939 61 26.2198C61 21.8457 57.4183 18.2998 53 18.2998C48.5817 18.2998 45 21.8457 45 26.2198C45 30.5939 48.5817 34.1398 53 34.1398Z" fill="#00C99F"/>
<path d="M50.3333 29.5199C49.7333 29.5199 49.4666 28.7939 49.8666 28.3979L55.1999 23.1179C55.4666 22.8539 55.8666 22.8539 56.1333 23.1179C56.3999 23.3819 56.3999 23.7779 56.1333 24.0419L50.7999 29.3219C50.6666 29.4539 50.5333 29.5199 50.3333 29.5199Z" fill="white"/>
<path d="M50.3333 24.8998C51.0697 24.8998 51.6667 24.3088 51.6667 23.5798C51.6667 22.8507 51.0697 22.2598 50.3333 22.2598C49.597 22.2598 49 22.8507 49 23.5798C49 24.3088 49.597 24.8998 50.3333 24.8998Z" fill="white"/>
<path d="M55.6666 30.18C56.403 30.18 56.9999 29.5891 56.9999 28.86C56.9999 28.131 56.403 27.54 55.6666 27.54C54.9302 27.54 54.3333 28.131 54.3333 28.86C54.3333 29.5891 54.9302 30.18 55.6666 30.18Z" fill="white"/>
</svg>
