<svg width="96" height="96" viewBox="0 0 96 96" fill="none" xmlns="http://www.w3.org/2000/svg">
<g clip-path="url(#clip0_312_3392)">
<path d="M47.6666 81C65.892 81 80.6666 66.2254 80.6666 48C80.6666 29.7746 65.892 15 47.6666 15C29.4412 15 14.6666 29.7746 14.6666 48C14.6666 66.2254 29.4412 81 47.6666 81Z" fill="#E7EFFF"/>
<path d="M82 42.7198C82 45.3598 78.4 46.4158 77.0666 44.0398H68C67.2666 44.0398 66.6666 43.4458 66.6666 42.7198C66.6666 41.9938 67.2666 41.3998 68 41.3998H77.0666C78.4 39.0238 82 40.0798 82 42.7198Z" fill="#A5BCED"/>
<path d="M84 27.5401C84 30.1801 80.4 31.2361 79.0666 28.8601H76C75.6 28.8601 75.3333 29.1241 75.3333 29.5201V32.8201C75.3333 34.6681 73.8666 36.1201 72 36.1201H64C63.2666 36.1201 62.6666 35.5261 62.6666 34.8001C62.6666 34.0741 63.2666 33.4801 64 33.4801H72C72.4 33.4801 72.6666 33.2161 72.6666 32.8201V29.5201C72.6666 27.6721 74.1333 26.2201 76 26.2201H79.0666C80.4 23.8441 84 24.9001 84 27.5401Z" fill="#A5BCED"/>
<path d="M84 57.8998C84 55.2598 80.4 54.2038 79.0666 56.5798H76C75.6 56.5798 75.3333 56.3158 75.3333 55.9198V52.6198C75.3333 50.7718 73.8666 49.3198 72 49.3198H64C63.2666 49.3198 62.6666 49.9138 62.6666 50.6398C62.6666 51.3658 63.2666 51.9598 64 51.9598H72C72.4 51.9598 72.6666 52.2238 72.6666 52.6198V55.9198C72.6666 57.7678 74.1333 59.2198 76 59.2198H79.0666C80.4 61.5958 84 60.5398 84 57.8998Z" fill="#A5BCED"/>
<path d="M14 42.7198C14 45.3598 17.6 46.4158 18.9333 44.0398H28C28.7333 44.0398 29.3333 43.4458 29.3333 42.7198C29.3333 41.9938 28.7333 41.3998 28 41.3998H18.9333C17.6 39.0238 14 40.0798 14 42.7198Z" fill="#A5BCED"/>
<path d="M12 27.5401C12 30.1801 15.6 31.2361 16.9333 28.8601H20C20.4 28.8601 20.6667 29.1241 20.6667 29.5201V32.8201C20.6667 34.6681 22.1333 36.1201 24 36.1201H32C32.7333 36.1201 33.3333 35.5261 33.3333 34.8001C33.3333 34.0741 32.7333 33.4801 32 33.4801H24C23.6 33.4801 23.3333 33.2161 23.3333 32.8201V29.5201C23.3333 27.6721 21.8667 26.2201 20 26.2201H16.9333C15.6 23.8441 12 24.9001 12 27.5401Z" fill="#A5BCED"/>
<path d="M12 57.8998C12 55.2598 15.6 54.2038 16.9333 56.5798H20C20.4 56.5798 20.6667 56.3158 20.6667 55.9198V52.6198C20.6667 50.7718 22.1333 49.3198 24 49.3198H32C32.7333 49.3198 33.3333 49.9138 33.3333 50.6398C33.3333 51.3658 32.7333 51.9598 32 51.9598H24C23.6 51.9598 23.3333 52.2238 23.3333 52.6198V55.9198C23.3333 57.7678 21.8667 59.2198 20 59.2198H16.9333C15.6 61.5958 12 60.5398 12 57.8998Z" fill="#A5BCED"/>
<path d="M52 65.1602H44V70.4402H52V65.1602Z" fill="#8FA2FF"/>
<path d="M48 66.48C61.2548 66.48 72 55.8422 72 42.72C72 29.5977 61.2548 18.96 48 18.96C34.7452 18.96 24 29.5977 24 42.72C24 55.8422 34.7452 66.48 48 66.48Z" fill="#4E6AFF"/>
<path d="M48 61.2002C58.3094 61.2002 66.6667 52.9265 66.6667 42.7202C66.6667 32.514 58.3094 24.2402 48 24.2402C37.6907 24.2402 29.3334 32.514 29.3334 42.7202C29.3334 52.9265 37.6907 61.2002 48 61.2002Z" fill="white"/>
<path d="M62 54.93C54.6 63.246 41.4667 63.312 34 54.93C34 53.148 35.1333 51.498 36.8 50.904L44.6667 48H51.3333L59.2 50.904C60.8667 51.564 62 53.148 62 54.93Z" fill="#323FD4"/>
<path d="M48 53.28C46.1333 53.28 44.6666 51.828 44.6666 49.98V48H51.3333V49.98C51.3333 51.828 49.8666 53.28 48 53.28Z" fill="#7F96D1"/>
<path d="M38.6666 40.7399V32.8199C38.6666 31.3679 39.8666 30.1799 41.3333 30.1799H43.3333L43.4666 29.9819C43.8 29.3219 44.4666 28.8599 45.2666 28.8599H55.3333C56.4666 28.8599 57.3333 29.7179 57.3333 30.8399V35.4599C57.3333 38.3639 54.9333 40.7399 52 40.7399H38.6666Z" fill="#7F96D1"/>
<path d="M53.3334 74.3999H42.6667C41.9334 74.3999 41.3334 73.8059 41.3334 73.0799V71.7599C41.3334 71.0339 41.9334 70.4399 42.6667 70.4399H53.3334C54.0667 70.4399 54.6667 71.0339 54.6667 71.7599V73.0799C54.6667 73.8059 54.0667 74.3999 53.3334 74.3999Z" fill="#4E6AFF"/>
<path d="M52.6667 74.3999V80.6699C49.5334 81.1319 46.4667 81.1319 43.3334 80.6699V74.3999H52.6667Z" fill="#323FD4"/>
<path d="M48 50.6398C43.9333 50.6398 40.6666 47.4058 40.6666 43.3798V37.7698C40.6666 36.2518 42.2 35.1298 43.6666 35.5918L47.4666 36.7138C49.0666 37.1758 50.8 36.9118 52.1333 35.8558C53.4 34.8658 55.3333 35.7898 55.3333 37.4398V43.3798C55.3333 47.4058 52.0666 50.6398 48 50.6398Z" fill="#A5BCED"/>
<path d="M40 43.3801H40.6667V38.1001H40C38.5334 38.1001 37.3334 39.2881 37.3334 40.7401C37.3334 42.1921 38.5334 43.3801 40 43.3801Z" fill="#A5BCED"/>
<path d="M56 38.1001H55.3334V43.3801H56C57.4667 43.3801 58.6667 42.1921 58.6667 40.7401C58.6667 39.2881 57.4667 38.1001 56 38.1001Z" fill="#A5BCED"/>
</g>
<defs>
<clipPath id="clip0_312_3392">
<rect width="72" height="66" fill="white" transform="translate(12 15)"/>
</clipPath>
</defs>
</svg>
