<svg width="96" height="96" viewBox="0 0 96 96" fill="none" xmlns="http://www.w3.org/2000/svg">
<g clip-path="url(#clip0_312_3343)">
<path d="M48 81C66.2254 81 81 66.2254 81 48C81 29.7746 66.2254 15 48 15C29.7746 15 15 29.7746 15 48C15 66.2254 29.7746 81 48 81Z" fill="#E7EFFF"/>
<path d="M76.3799 28.8598H32.8199V22.2598H73.7399C75.1919 22.2598 76.3799 23.4478 76.3799 24.8998V28.8598Z" fill="#4E6AFF"/>
<path d="M36.78 28.8598H19.62V24.8998C19.62 23.4478 20.808 22.2598 22.26 22.2598H32.82C34.998 22.2598 36.78 24.0418 36.78 26.2198V28.8598Z" fill="#8FA2FF"/>
<path d="M76.38 28.8599V64.8299C74.334 68.2619 71.76 71.2979 68.658 73.7399H27.342C24.24 71.2979 21.666 68.2619 19.62 64.8299V28.8599H76.38Z" fill="#CBDCFF"/>
<path d="M74.4 51.2999C74.4 53.9399 70.836 54.9959 69.516 52.6199H60.54C59.814 52.6199 59.22 52.0259 59.22 51.2999C59.22 50.5739 59.814 49.9799 60.54 49.9799H69.516C70.836 47.6039 74.4 48.6599 74.4 51.2999Z" fill="#7F96D1"/>
<path d="M80.34 36.7799C80.34 39.4199 76.776 40.4759 75.456 38.0999H69.12C68.724 38.0999 68.46 38.3639 68.46 38.7599V42.0599C68.46 43.9079 67.008 45.3599 65.16 45.3599H60.54C59.814 45.3599 59.22 44.7659 59.22 44.0399C59.22 43.3139 59.814 42.7199 60.54 42.7199H65.16C65.556 42.7199 65.82 42.4559 65.82 42.0599V38.7599C65.82 36.9119 67.272 35.4599 69.12 35.4599H75.456C76.776 33.0839 80.34 34.1399 80.34 36.7799Z" fill="#7F96D1"/>
<path d="M68.46 60.5402V63.8402C68.46 64.2362 68.724 64.5002 69.12 64.5002H75.456C76.842 62.1242 80.34 63.1802 80.34 65.8202C80.34 68.4602 76.776 69.5162 75.456 67.1402H69.12C67.272 67.1402 65.82 65.6882 65.82 63.8402V60.5402C65.82 60.1442 65.556 59.8802 65.16 59.8802H60.54C59.814 59.8802 59.22 59.2862 59.22 58.5602C59.22 57.8342 59.814 57.2402 60.54 57.2402H65.16C67.008 57.2402 68.46 58.6922 68.46 60.5402Z" fill="#7F96D1"/>
<path d="M21.6 51.2999C21.6 53.9399 25.164 54.9959 26.484 52.6199H35.46C36.186 52.6199 36.78 52.0259 36.78 51.2999C36.78 50.5739 36.186 49.9799 35.46 49.9799H26.484C25.164 47.6039 21.6 48.6599 21.6 51.2999Z" fill="#7F96D1"/>
<path d="M15.66 36.7799C15.66 39.4199 19.224 40.4759 20.544 38.0999H26.88C27.276 38.0999 27.54 38.3639 27.54 38.7599V42.0599C27.54 43.9079 28.992 45.3599 30.84 45.3599H35.46C36.186 45.3599 36.78 44.7659 36.78 44.0399C36.78 43.3139 36.186 42.7199 35.46 42.7199H30.84C30.444 42.7199 30.18 42.4559 30.18 42.0599V38.7599C30.18 36.9119 28.728 35.4599 26.88 35.4599H20.544C19.224 33.0839 15.66 34.1399 15.66 36.7799Z" fill="#7F96D1"/>
<path d="M27.54 60.5402V63.8402C27.54 64.2362 27.276 64.5002 26.88 64.5002H20.544C19.224 62.1242 15.66 63.1802 15.66 65.8202C15.66 68.4602 19.224 69.5162 20.544 67.1402H26.88C28.728 67.1402 30.18 65.6882 30.18 63.8402V60.5402C30.18 60.1442 30.444 59.8802 30.84 59.8802H35.46C36.186 59.8802 36.78 59.2862 36.78 58.5602C36.78 57.8342 36.186 57.2402 35.46 57.2402H30.84C28.992 57.2402 27.54 58.6922 27.54 60.5402Z" fill="#7F96D1"/>
<path d="M65.8201 53.94V48.66C65.8201 47.934 65.2261 47.34 64.5001 47.34H62.916C62.3881 47.34 61.8601 47.01 61.6621 46.482C61.4641 46.02 61.2661 45.492 61.0681 45.03C60.8041 44.502 60.9361 43.908 61.3321 43.512L62.4541 42.39C62.9821 41.862 62.9821 41.07 62.4541 40.542L58.6921 36.78C58.1641 36.252 57.3721 36.252 56.8441 36.78L55.7221 37.902C55.3261 38.298 54.7321 38.43 54.2041 38.166C53.7421 37.968 53.2801 37.77 52.7521 37.572C52.2241 37.374 51.8941 36.912 51.8941 36.318V34.8C51.8941 34.074 51.3001 33.48 50.5741 33.48H45.2941C44.5681 33.48 43.9741 34.074 43.9741 34.8V36.384C43.9741 36.912 43.6441 37.44 43.1161 37.638C42.6541 37.836 42.1261 38.034 41.6641 38.232C41.1361 38.496 40.5421 38.364 40.1461 37.968L39.0241 36.846C38.4961 36.318 37.7041 36.318 37.1761 36.846L33.4141 40.608C32.8861 41.136 32.8861 41.928 33.4141 42.456L34.5361 43.578C34.9321 43.974 35.0641 44.568 34.8001 45.096C34.6021 45.558 34.4041 46.02 34.2061 46.548C34.0081 47.076 33.5461 47.406 32.9521 47.406H31.5001C30.7741 47.406 30.1801 48 30.1801 48.726V54.006C30.1801 54.732 30.7741 55.326 31.5001 55.326H33.0841C33.6121 55.326 34.1401 55.656 34.3381 56.184C34.5361 56.646 34.7341 57.174 34.9321 57.636C35.1961 58.164 35.0641 58.758 34.6681 59.154L33.5461 60.276C33.0181 60.804 33.0181 61.596 33.5461 62.124L37.3081 65.886C37.8361 66.414 38.6281 66.414 39.1561 65.886L40.2781 64.764C40.6741 64.368 41.2681 64.236 41.7961 64.5C42.2581 64.698 42.7201 64.896 43.2481 65.094C43.7761 65.292 44.1061 65.754 44.1061 66.348V67.8C44.1061 68.526 44.7001 69.12 45.4261 69.12H50.7061C51.4321 69.12 52.0261 68.526 52.0261 67.8V66.216C52.0261 65.688 52.3561 65.16 52.8841 64.962C53.3461 64.764 53.8741 64.566 54.3361 64.368C54.8641 64.104 55.4581 64.236 55.8541 64.632L56.9761 65.754C57.5041 66.282 58.2961 66.282 58.8241 65.754L62.5861 61.992C63.1141 61.464 63.1141 60.672 62.5861 60.144L61.4641 59.022C61.0681 58.626 60.9361 58.032 61.2001 57.504C61.3981 57.042 61.5961 56.58 61.7941 56.052C61.9921 55.524 62.4541 55.194 63.0481 55.194H64.5001C65.2261 55.26 65.8201 54.666 65.8201 53.94Z" fill="#4E6AFF"/>
<path d="M73.08 26.2199C73.4446 26.2199 73.74 25.9244 73.74 25.5599C73.74 25.1954 73.4446 24.8999 73.08 24.8999C72.7155 24.8999 72.42 25.1954 72.42 25.5599C72.42 25.9244 72.7155 26.2199 73.08 26.2199Z" fill="white"/>
<path d="M69.12 26.2199C69.4845 26.2199 69.78 25.9244 69.78 25.5599C69.78 25.1954 69.4845 24.8999 69.12 24.8999C68.7555 24.8999 68.46 25.1954 68.46 25.5599C68.46 25.9244 68.7555 26.2199 69.12 26.2199Z" fill="white"/>
<path d="M65.16 26.2199C65.5245 26.2199 65.82 25.9244 65.82 25.5599C65.82 25.1954 65.5245 24.8999 65.16 24.8999C64.7955 24.8999 64.5 25.1954 64.5 25.5599C64.5 25.9244 64.7955 26.2199 65.16 26.2199Z" fill="white"/>
<path d="M33.4799 26.2199C33.8445 26.2199 34.1399 25.9244 34.1399 25.5599C34.1399 25.1954 33.8445 24.8999 33.4799 24.8999C33.1154 24.8999 32.8199 25.1954 32.8199 25.5599C32.8199 25.9244 33.1154 26.2199 33.4799 26.2199Z" fill="white"/>
<path d="M56.58 46.6802V55.9202C56.58 56.1842 56.448 56.3822 56.25 56.5142C47.538 60.8042 48.198 60.5402 48 60.5402C47.802 60.5402 48.396 60.8042 39.75 56.5142C39.552 56.3822 39.42 56.1842 39.42 55.9202V46.6802C39.42 46.4162 39.552 46.2182 39.75 46.0862L47.67 42.1262C47.868 42.0602 48.066 42.0602 48.264 42.1262L56.184 46.0862C56.448 46.2182 56.58 46.4162 56.58 46.6802Z" fill="#FFA100"/>
</g>
<defs>
<clipPath id="clip0_312_3343">
<rect width="66" height="66" fill="white" transform="translate(15 15)"/>
</clipPath>
</defs>
</svg>
