<svg width="70" height="69" viewBox="0 0 70 69" fill="none" xmlns="http://www.w3.org/2000/svg">
<path d="M35.0001 68.3337C53.4096 68.3337 68.3334 53.4098 68.3334 35.0003C68.3334 16.5908 53.4096 1.66699 35.0001 1.66699C16.5906 1.66699 1.66675 16.5908 1.66675 35.0003C1.66675 53.4098 16.5906 68.3337 35.0001 68.3337Z" fill="#EAEAEA"/>
<path d="M35 68C53.7777 68 69 52.7777 69 34C69 15.2223 53.7777 0 35 0C16.2223 0 1 15.2223 1 34C1 52.7777 16.2223 68 35 68Z" fill="#EAEAEA"/>
<path d="M51.0001 15.6672H43.0001V13.0005H51.0001C51.7335 13.0005 52.3335 13.6005 52.3335 14.3338C52.3335 14.8672 51.9335 15.6672 51.0001 15.6672Z" fill="#E8E8E8"/>
<path d="M51.0001 42.3337H43.0001V39.667H51.0001C51.7335 39.667 52.3335 40.267 52.3335 41.0003C52.3335 41.5337 51.9335 42.3337 51.0001 42.3337Z" fill="#E8E8E8"/>
<path d="M63.6667 27.6669C63.6667 30.3336 60.0667 31.4002 58.7334 29.0002H49.6667C48.9334 29.0002 48.3334 28.4002 48.3334 27.6669C48.3334 26.9336 48.9334 26.3336 49.6667 26.3336H58.7334C60.0667 23.9336 63.6667 25.0002 63.6667 27.6669Z" fill="#E8E8E8"/>
<path d="M69.6668 12.3339C69.6668 15.0006 66.0668 16.0672 64.7335 13.6672H58.3335C57.9335 13.6672 57.6668 13.9339 57.6668 14.3339V17.6672C57.6668 19.5339 56.2001 21.0006 54.3335 21.0006H48.3335C47.6001 21.0006 47.0001 20.4006 47.0001 19.6672C47.0001 18.9339 47.6001 18.3339 48.3335 18.3339H54.3335C54.7335 18.3339 55.0001 18.0672 55.0001 17.6672V14.3339C55.0001 12.4672 56.4668 11.0006 58.3335 11.0006H64.7335C66.0668 8.60057 69.6668 9.66724 69.6668 12.3339Z" fill="#E8E8E8"/>
<path d="M57.6668 37.6668V41.0002C57.6668 41.4002 57.9335 41.6668 58.3335 41.6668H64.7335C66.1335 39.2668 69.6668 40.3335 69.6668 43.0002C69.6668 45.6668 66.0668 46.7335 64.7335 44.3335H58.3335C56.4668 44.3335 55.0001 42.8668 55.0001 41.0002V37.6668C55.0001 37.2668 54.7335 37.0002 54.3335 37.0002H48.3335C47.6001 37.0002 47.0001 36.4002 47.0001 35.6668C47.0001 34.9335 47.6001 34.3335 48.3335 34.3335H54.3335C56.2001 34.3335 57.6668 35.8002 57.6668 37.6668Z" fill="#E8E8E8"/>
<path d="M19.0001 15.6672H27.0001V13.0005H19.0001C18.2667 13.0005 17.6667 13.6005 17.6667 14.3338C17.6667 14.8672 18.0667 15.6672 19.0001 15.6672Z" fill="#E8E8E8"/>
<path d="M19.0001 42.3337H27.0001V39.667H19.0001C18.2667 39.667 17.6667 40.267 17.6667 41.0003C17.6667 41.5337 18.0667 42.3337 19.0001 42.3337Z" fill="#E8E8E8"/>
<path d="M6.3335 27.6669C6.3335 30.3336 9.9335 31.4002 11.2668 29.0002H20.3335C21.0668 29.0002 21.6668 28.4002 21.6668 27.6669C21.6668 26.9336 21.0668 26.3336 20.3335 26.3336H11.2668C9.9335 23.9336 6.3335 25.0002 6.3335 27.6669Z" fill="#E8E8E8"/>
<path d="M0.333496 12.3339C0.333496 15.0006 3.9335 16.0672 5.26683 13.6672H11.6668C12.0668 13.6672 12.3335 13.9339 12.3335 14.3339V17.6672C12.3335 19.5339 13.8002 21.0006 15.6668 21.0006H21.6668C22.4002 21.0006 23.0002 20.4006 23.0002 19.6672C23.0002 18.9339 22.4002 18.3339 21.6668 18.3339H15.6668C15.2668 18.3339 15.0002 18.0672 15.0002 17.6672V14.3339C15.0002 12.4672 13.5335 11.0006 11.6668 11.0006H5.26683C3.9335 8.60057 0.333496 9.66724 0.333496 12.3339Z" fill="#E8E8E8"/>
<path d="M12.3335 37.6668V41.0002C12.3335 41.4002 12.0668 41.6668 11.6668 41.6668H5.26683C3.9335 39.2668 0.333496 40.3335 0.333496 43.0002C0.333496 45.6668 3.9335 46.7335 5.26683 44.3335H11.6668C13.5335 44.3335 15.0002 42.8668 15.0002 41.0002V37.6668C15.0002 37.2668 15.2668 37.0002 15.6668 37.0002H21.6668C22.4002 37.0002 23.0002 36.4002 23.0002 35.6668C23.0002 34.9335 22.4002 34.3335 21.6668 34.3335H15.6668C13.8002 34.3335 12.3335 35.8002 12.3335 37.6668Z" fill="#E8E8E8"/>
<path d="M57.6667 52.8V59.4C44.8667 71.2667 25.1334 71.2667 12.3334 59.4V52.8C12.3334 50.0667 14 47.6667 16.4667 46.6L30.3334 41H39.6667L53.5334 46.6667C56 47.6667 57.6667 50.1333 57.6667 52.8Z" fill="#6A6A6A"/>
<path d="M35 47.6667C32.4 47.6667 30.3334 45.6 30.3334 43V41H39.6667V43C39.6667 45.6 37.6 47.6667 35 47.6667Z" fill="#E8E8E8"/>
<path d="M35.0002 44.3333C44.2049 44.3333 51.6668 36.8714 51.6668 27.6667C51.6668 18.4619 44.2049 11 35.0002 11C25.7954 11 18.3335 18.4619 18.3335 27.6667C18.3335 36.8714 25.7954 44.3333 35.0002 44.3333Z" fill="#C2C2C2"/>
<path d="M35.0001 40.9997C42.3639 40.9997 48.3334 35.0301 48.3334 27.6663C48.3334 20.3025 42.3639 14.333 35.0001 14.333C27.6363 14.333 21.6667 20.3025 21.6667 27.6663C21.6667 35.0301 27.6363 40.9997 35.0001 40.9997Z" fill="#929292"/>
<path d="M43.6666 22.9996V32.3329C43.6666 32.5996 43.5333 32.7996 43.3333 32.9329C34.5333 37.2663 35.1999 36.9996 34.9999 36.9996C34.7999 36.9996 35.3999 37.2663 26.6666 32.9329C26.4666 32.7996 26.3333 32.5996 26.3333 32.3329V22.9996C26.3333 22.7329 26.4666 22.5329 26.6666 22.3996L34.6666 18.3996C34.8666 18.3329 35.0666 18.3329 35.2666 18.3996L43.2666 22.3996C43.5333 22.5329 43.6666 22.7329 43.6666 22.9996Z" fill="#6A6A6A"/>
<path d="M23 59.6668V66.1335C22.0667 65.8002 21.2 65.4002 20.3334 64.9335V59.6668C20.3334 58.9335 20.9334 58.3335 21.6667 58.3335C22.2 58.3335 23 58.7335 23 59.6668Z" fill="#929292"/>
<path d="M49.6668 59.6668V64.9335C48.8001 65.4002 47.9335 65.7335 47.0001 66.1335V59.6668C47.0001 58.9335 47.6001 58.3335 48.3335 58.3335C48.8668 58.3335 49.6668 58.7335 49.6668 59.6668Z" fill="#929292"/>
</svg>
