<svg width="96" height="96" viewBox="0 0 96 96" fill="none" xmlns="http://www.w3.org/2000/svg">
<g clip-path="url(#clip0_312_3188)">
<path d="M48 82.5298C66.7777 82.5298 82 67.3075 82 48.5298C82 29.7521 66.7777 14.5298 48 14.5298C29.2223 14.5298 14 29.7521 14 48.5298C14 67.3075 29.2223 82.5298 48 82.5298Z" fill="#E7EFFF"/>
<path d="M29.98 38.7037C27.94 40.0637 27.396 41.6957 26.852 43.1237C26.648 43.6677 25.832 43.6677 25.56 43.1237C24.948 41.6957 24.472 40.0637 22.432 38.7037C22.024 38.4317 22.024 37.8197 22.432 37.5477C24.472 36.1877 25.016 34.5557 25.56 33.1277C25.764 32.5837 26.58 32.5837 26.852 33.1277C27.464 34.5557 27.94 36.1877 29.98 37.5477C30.388 37.8877 30.388 38.4317 29.98 38.7037Z" fill="#FFA100"/>
<path d="M48.0001 45.64C57.0133 45.64 64.3201 38.3333 64.3201 29.32C64.3201 20.3067 57.0133 13 48.0001 13C38.9868 13 31.6801 20.3067 31.6801 29.32C31.6801 38.3333 38.9868 45.64 48.0001 45.64Z" fill="#FFA100"/>
<path d="M48.0001 42.2399C55.1356 42.2399 60.9201 36.4554 60.9201 29.3199C60.9201 22.1844 55.1356 16.3999 48.0001 16.3999C40.8646 16.3999 35.0801 22.1844 35.0801 29.3199C35.0801 36.4554 40.8646 42.2399 48.0001 42.2399Z" fill="#323FD4"/>
<path d="M56.84 24.5599V34.0799C56.84 34.3519 56.704 34.5559 56.5 34.6919C47.524 39.1119 48.204 38.8399 48 38.8399C47.796 38.8399 48.408 39.1119 39.5 34.6919C39.296 34.5559 39.16 34.3519 39.16 34.0799V24.5599C39.16 24.2879 39.296 24.0839 39.5 23.9479L47.66 19.8679C47.864 19.7999 48.068 19.7999 48.272 19.8679L56.432 23.9479C56.704 24.0839 56.84 24.2879 56.84 24.5599Z" fill="#4E6AFF"/>
<path d="M75.2001 57.1999H20.8001C20.0521 57.1999 19.4401 56.5879 19.4401 55.8399V51.7599C19.4401 51.0119 20.0521 50.3999 20.8001 50.3999H75.2001C75.9481 50.3999 76.5601 51.0119 76.5601 51.7599V55.8399C76.5601 56.5879 75.9481 57.1999 75.2001 57.1999Z" fill="#4E6AFF"/>
<path d="M72.48 57.1997L69.488 74.7437C56.976 84.9437 39.024 84.9437 26.512 74.7437L23.52 57.1997H72.48Z" fill="#323FD4"/>
<path d="M37.1201 77.5998C35.9641 77.5998 35.0801 76.7158 35.0801 75.5598V63.3198C35.0801 62.1638 35.9641 61.2798 37.1201 61.2798C38.2761 61.2798 39.1601 62.1638 39.1601 63.3198V75.5598C39.1601 76.7158 38.2761 77.5998 37.1201 77.5998Z" fill="#4E6AFF"/>
<path d="M48 77.5998C46.844 77.5998 45.96 76.7158 45.96 75.5598V63.3198C45.96 62.1638 46.844 61.2798 48 61.2798C49.156 61.2798 50.04 62.1638 50.04 63.3198V75.5598C50.04 76.7158 49.156 77.5998 48 77.5998Z" fill="#4E6AFF"/>
<path d="M58.88 77.5998C57.724 77.5998 56.84 76.7158 56.84 75.5598V63.3198C56.84 62.1638 57.724 61.2798 58.88 61.2798C60.036 61.2798 60.92 62.1638 60.92 63.3198V75.5598C60.92 76.7158 60.036 77.5998 58.88 77.5998Z" fill="#4E6AFF"/>
<path d="M45.8239 55.4316L23.4519 71.8876C22.4999 70.8676 21.6159 69.8476 20.7999 68.7596L43.3759 52.0996C44.2599 51.4196 45.5519 51.6236 46.2319 52.5076C46.9119 53.4596 46.7079 54.7516 45.8239 55.4316Z" fill="#8FA2FF"/>
<path d="M75.1999 68.7595C74.3839 69.8475 73.4999 70.8675 72.5479 71.8875L50.1759 55.4315C49.2919 54.7515 49.0879 53.4595 49.7679 52.5755C50.4479 51.6915 51.7399 51.4875 52.6239 52.1675L75.1999 68.7595Z" fill="#8FA2FF"/>
<path d="M42.1261 31.5752C41.0345 31.5752 40.2158 31.3404 39.67 30.8707C39.1305 30.3947 38.8608 29.6458 38.8608 28.624C38.8608 28.0337 38.9718 27.5197 39.194 27.0817C39.4161 26.6375 39.7684 26.2916 40.2507 26.0441C40.733 25.7965 41.3582 25.6728 42.1261 25.6728C42.7291 25.6728 43.2305 25.7045 43.6303 25.768C44.0301 25.8314 44.2999 25.8949 44.4395 25.9584V26.244L44.6299 27.2912C44.5093 27.2087 44.3284 27.123 44.0873 27.0341C43.8524 26.9453 43.57 26.8723 43.24 26.8152C42.91 26.7517 42.545 26.72 42.1452 26.72C41.7073 26.72 41.3518 26.7898 41.0789 26.9294C40.8124 27.069 40.6156 27.2817 40.4887 27.5673C40.3681 27.8465 40.3078 28.1988 40.3078 28.624C40.3078 29.0492 40.3681 29.4014 40.4887 29.6807C40.6156 29.96 40.8314 30.1694 41.1361 30.309C41.447 30.4486 41.8754 30.5185 42.4213 30.5185C42.9671 30.5185 43.4209 30.4423 43.7826 30.29C44.1507 30.1377 44.4014 29.9917 44.5347 29.8521V30.1377L44.6299 31.0992C44.522 31.2007 44.2586 31.3054 43.8397 31.4133C43.4272 31.5212 42.856 31.5752 42.1261 31.5752ZM45.4824 31.48C45.5268 31.48 45.5681 31.4387 45.6061 31.3562C45.6506 31.2674 45.6728 31.1182 45.6728 30.9088V26.3392C45.6728 26.1361 45.6506 25.9901 45.6061 25.9013C45.5681 25.8124 45.5268 25.768 45.4824 25.768H47.3197C47.2753 25.768 47.2309 25.8124 47.1865 25.9013C47.142 25.9838 47.1198 26.1329 47.1198 26.3487V30.9088C47.1198 31.1119 47.142 31.2578 47.1865 31.3467C47.2309 31.4356 47.2753 31.48 47.3197 31.48H45.4824ZM48.281 31.48C48.3254 31.48 48.3666 31.4356 48.4047 31.3467C48.4492 31.2578 48.4714 31.1119 48.4714 30.9088V26.3392C48.4714 26.1361 48.4492 25.9933 48.4047 25.9108C48.3603 25.8219 48.3159 25.7743 48.2714 25.768H51.394C51.9525 25.768 52.3968 25.8378 52.7268 25.9774C53.0632 26.117 53.3044 26.3233 53.4503 26.5962C53.6026 26.8628 53.6788 27.196 53.6788 27.5958C53.6788 27.8814 53.6249 28.1353 53.517 28.3574C53.4154 28.5796 53.2726 28.7604 53.0886 28.9001C52.9045 29.0397 52.6982 29.1412 52.4698 29.2047V29.2333C52.7236 29.3348 52.9902 29.5347 53.2694 29.833C53.5487 30.125 53.7994 30.4518 54.0215 30.8136C54.1675 31.0484 54.3008 31.2166 54.4214 31.3181C54.542 31.4197 54.634 31.4736 54.6974 31.48H52.2984C52.3746 31.4736 52.4349 31.4324 52.4793 31.3562C52.5301 31.2737 52.5142 31.1404 52.4317 30.9564C52.2984 30.6517 52.1366 30.3884 51.9462 30.1662C51.7558 29.9441 51.5336 29.7759 51.2798 29.6617C51.0322 29.5411 50.7466 29.4808 50.423 29.4808H50.3182C50.1215 29.4808 50.0073 29.4966 49.9755 29.5284C49.9438 29.5601 49.9279 29.6394 49.9279 29.7664V30.9088C49.9279 31.1119 49.9501 31.2578 49.9946 31.3467C50.039 31.4356 50.0834 31.48 50.1278 31.48H48.281ZM50.3182 28.5193H51.0989C51.4987 28.5193 51.7875 28.4494 51.9652 28.3098C52.1429 28.1638 52.2318 27.9258 52.2318 27.5958C52.2318 27.4498 52.2 27.3197 52.1366 27.2055C52.0731 27.0913 51.9652 27.0024 51.8129 26.9389C51.6669 26.8755 51.4606 26.8437 51.1941 26.8437H50.3182C50.1215 26.8437 50.0073 26.8533 49.9755 26.8723C49.9438 26.8913 49.9279 26.9643 49.9279 27.0913V28.2622C49.9279 28.3892 49.9438 28.4653 49.9755 28.4907C50.0073 28.5097 50.1215 28.5193 50.3182 28.5193ZM55.1697 31.48C55.2142 31.48 55.2554 31.4387 55.2935 31.3562C55.3379 31.2674 55.3601 31.1182 55.3601 30.9088V26.3392C55.3601 26.1361 55.3379 25.9901 55.2935 25.9013C55.2554 25.8124 55.2142 25.768 55.1697 25.768H57.0071C56.9627 25.768 56.9182 25.8124 56.8738 25.9013C56.8294 25.9838 56.8072 26.1329 56.8072 26.3487V30.9088C56.8072 31.1119 56.8294 31.2578 56.8738 31.3467C56.9182 31.4356 56.9627 31.48 57.0071 31.48H55.1697Z" fill="white"/>
</g>
<defs>
<clipPath id="clip0_312_3188">
<rect width="68" height="69.36" fill="white" transform="translate(14 13)"/>
</clipPath>
</defs>
</svg>
