<svg width="67" height="64" viewBox="0 0 67 64" fill="none" xmlns="http://www.w3.org/2000/svg">
<path d="M34.4757 64C52.4383 64 67 49.6731 67 32C67 14.3269 52.4383 0 34.4757 0C16.513 0 1.95142 14.3269 1.95142 32C1.95142 49.6731 16.513 64 34.4757 64Z" fill="#E7EFFF"/>
<path d="M34.4757 64C52.4383 64 67 49.6731 67 32C67 14.3269 52.4383 0 34.4757 0C16.513 0 1.95142 14.3269 1.95142 32C1.95142 49.6731 16.513 64 34.4757 64Z" fill="#E7EFFF"/>
<path d="M52.6894 50.56H4.55343C2.40682 50.56 0.650513 48.832 0.650513 46.72V8.31998C0.650513 6.20798 2.40682 4.47998 4.55343 4.47998H52.6894C54.836 4.47998 56.5923 6.20798 56.5923 8.31998V46.72C56.5923 48.832 54.836 50.56 52.6894 50.56Z" fill="#A5BCED"/>
<path d="M9.1068 48.0002V48.6402C9.1068 50.0482 7.93592 51.2002 6.50485 51.2002H2.60194C1.17087 51.2002 0 50.0482 0 48.6402V44.8002C0 43.3922 1.17087 42.2402 2.60194 42.2402H3.25243V47.3602C3.25243 47.7442 3.51262 48.0002 3.90291 48.0002H9.1068Z" fill="#8FA2FF"/>
<path d="M53.3398 48H3.90293C3.51264 48 3.25244 47.744 3.25244 47.36V7.68004C3.25244 7.29604 3.51264 7.04004 3.90293 7.04004H53.3398C53.7301 7.04004 53.9903 7.29604 53.9903 7.68004V47.36C53.9903 47.744 53.7301 48 53.3398 48Z" fill="white"/>
<path d="M53.9903 44.8002V30.0802C53.9903 30.0802 48.7864 23.6802 38.3787 23.6802C20.8155 23.6802 22.767 35.8402 3.25244 35.8402V44.8002C13.8554 44.8002 43.5175 44.8002 53.9903 44.8002Z" fill="#323FD4"/>
<path d="M3.90293 48.0002C3.51264 48.0002 3.25244 47.7442 3.25244 47.3602V34.5602C3.25244 34.5602 9.10681 28.1602 18.2136 28.1602C27.3204 28.1602 44.233 37.7602 53.9903 37.7602V48.0002C51.5835 48.0002 1.56118 48.0002 3.90293 48.0002Z" fill="#4E6AFF"/>
<path d="M12.3593 47.9998C12.3593 47.9998 20.1651 40.3198 30.5728 40.3198C40.9806 40.3198 45.534 47.9998 45.534 47.9998H12.3593Z" fill="#8FA2FF"/>
<path d="M48.1359 7.03984V6.39984C48.1359 4.99184 49.3067 3.83984 50.7378 3.83984H54.6407C56.0718 3.83984 57.2427 4.99184 57.2427 6.39984V10.2398C57.2427 11.6478 56.0718 12.7998 54.6407 12.7998H53.9902V7.67984C53.9902 7.29584 53.73 7.03984 53.3397 7.03984H48.1359Z" fill="#8FA2FF"/>
<path d="M3.25243 12.7998H2.60194C1.17087 12.7998 0 11.6478 0 10.2398V6.39984C0 4.99184 1.17087 3.83984 2.60194 3.83984H6.50485C7.93592 3.83984 9.1068 4.99184 9.1068 6.39984V7.03984H3.90291C3.51262 7.03984 3.25243 7.29584 3.25243 7.67984V12.7998Z" fill="#8FA2FF"/>
<path d="M15.5 23C17.9853 23 20 20.9853 20 18.5C20 16.0147 17.9853 14 15.5 14C13.0147 14 11 16.0147 11 18.5C11 20.9853 13.0147 23 15.5 23Z" fill="#FFA100"/>
<path d="M45.8592 5.632C43.9077 6.912 43.3873 8.448 42.8669 9.792C42.6718 10.304 41.8912 10.304 41.631 9.792C41.0456 8.448 40.5902 6.912 38.6388 5.632C38.2485 5.376 38.2485 4.8 38.6388 4.544C40.5902 3.264 41.1106 1.728 41.631 0.384C41.8262 -0.128 42.6067 -0.128 42.8669 0.384C43.4524 1.728 43.9077 3.264 45.8592 4.544C46.2495 4.864 46.2495 5.376 45.8592 5.632Z" fill="#FFA100"/>
<path d="M24.3932 51.0719C22.4418 52.3519 21.9214 53.8879 21.401 55.2319C21.2059 55.7439 20.4253 55.7439 20.1651 55.2319C19.5796 53.8879 19.1243 52.3519 17.1728 51.0719C16.7826 50.8159 16.7826 50.2399 17.1728 49.9839C19.1243 48.7039 19.6447 47.1679 20.1651 45.8239C20.3602 45.3119 21.1408 45.3119 21.401 45.8239C21.9864 47.1679 22.4418 48.7039 24.3932 49.9839C24.7835 50.3039 24.7835 50.8159 24.3932 51.0719Z" fill="#FFA100"/>
<path d="M51.3884 59.5199C58.5734 59.5199 64.3981 53.7892 64.3981 46.7199C64.3981 39.6507 58.5734 33.9199 51.3884 33.9199C44.2033 33.9199 38.3787 39.6507 38.3787 46.7199C38.3787 53.7892 44.2033 59.5199 51.3884 59.5199Z" fill="#FFA100"/>
</svg>
